<svg viewBox="0 0 24 24" width="35" height="35" xmlns="http://www.w3.org/2000/svg" ><path fill="currentColor" fill-rule="evenodd" clip-rule="evenodd" d="M12,1.41C6.07,1.41,1.25,6.24,1.25,12.16c0,3.11,1.35,6.07,3.7,8.11,1.95,1.7,4.46,2.64,7.05,2.64s5.1-.94,7.05-2.64c2.35-2.04,3.7-5,3.7-8.11,0-5.93-4.82-10.75-10.75-10.75ZM12,21.41c-2.05,0-4.04-.68-5.65-1.93,1.02-2.16,3.23-3.57,5.65-3.57s4.62,1.42,5.65,3.57c-1.61,1.25-3.6,1.93-5.65,1.93ZM18.8,18.44c-1.35-2.44-3.96-4.02-6.8-4.02s-5.45,1.58-6.8,4.02c-1.57-1.7-2.45-3.94-2.45-6.27C2.75,7.06,6.9,2.91,12,2.91s9.25,4.15,9.25,9.25c0,2.34-.88,4.57-2.45,6.27Z"/><path fill="currentColor" fill-rule="evenodd" clip-rule="evenodd" d="M12,5.41c-2.07,0-3.75,1.68-3.75,3.75s1.68,3.75,3.75,3.75,3.75-1.68,3.75-3.75-1.68-3.75-3.75-3.75ZM12,11.41c-1.24,0-2.25-1.01-2.25-2.25s1.01-2.25,2.25-2.25,2.25,1.01,2.25,2.25-1.01,2.25-2.25,2.25Z"/></svg>