<svg  viewBox="0 0 24 24" width="35" height="35" xmlns="http://www.w3.org/2000/svg" ><path fill="currentColor" fill-rule="evenodd" clip-rule="evenodd" d="M12,5.41c-2.07,0-3.75,1.68-3.75,3.75s1.68,3.75,3.75,3.75,3.75-1.68,3.75-3.75-1.68-3.75-3.75-3.75ZM12,11.41c-1.24,0-2.25-1.01-2.25-2.25s1.01-2.25,2.25-2.25,2.25,1.01,2.25,2.25-1.01,2.25-2.25,2.25Z"/><path fill="currentColor" fill-rule="evenodd" clip-rule="evenodd" d="M11.72,20.42l2.29,1.83c.42.33.91.49,1.41.49.62,0,1.24-.25,1.68-.75l5.03-5.59c.17-.19.26-.44.24-.69-.01-.26-.13-.49-.32-.66-.18-.16-.4-.25-.64-.25-.02,0-.03,0-.05,0-.26.01-.49.13-.66.32l-5.03,5.59c-.07.07-.16.11-.25.11-.08,0-.15-.02-.21-.07l-2.29-1.83c-.17-.14-.38-.21-.59-.21-.04,0-.07,0-.11,0-.25.03-.48.15-.64.35-.33.41-.26,1.02.15,1.35Z"/><path fill="currentColor" fill-rule="evenodd" clip-rule="evenodd" d="M12,1.41C6.07,1.41,1.25,6.24,1.25,12.16c0,3.11,1.35,6.07,3.7,8.11,1.95,1.7,4.46,2.64,7.05,2.64.04,0,.07,0,.11,0l-1.11-.89h0l-.35-.28-.74-.59c-1.29-.3-2.51-.85-3.57-1.67,1.02-2.16,3.23-3.57,5.65-3.57,1.59,0,3.08.63,4.21,1.67l1-1.11c-1.4-1.28-3.24-2.05-5.21-2.05-2.84,0-5.45,1.58-6.8,4.02-1.57-1.7-2.45-3.94-2.45-6.27C2.75,7.06,6.9,2.91,12,2.91s9.25,4.15,9.25,9.25c0,.32-.02.65-.05.96.03,0,.06-.01.1-.01h.09s.04,0,.04,0c.44,0,.87.12,1.25.32.05-.42.08-.84.08-1.27,0-5.93-4.82-10.75-10.75-10.75Z"/></svg>