<svg viewBox="0 0 24 24" width="35" height="35" xmlns="http://www.w3.org/2000/svg" fill="currentColor"><path class="cls-1" d="M3.22,10.79c-.67,0-1.21.54-1.21,1.21,0,.67.54,1.21,1.21,1.21h17.56c.32,0,.63-.13.85-.35s.35-.53.35-.85c0-.64-.56-1.21-1.21-1.21H3.22Z"/><path d="M3.22,5.78c-.67,0-1.21.54-1.21,1.21,0,.67.54,1.21,1.21,1.21h17.56c.32,0,.63-.13.85-.35s.35-.53.35-.85c0-.64-.56-1.21-1.21-1.21H3.22Z"/><path d="M3.22,15.8c-.67,0-1.21.54-1.21,1.21,0,.67.54,1.21,1.21,1.21h17.56c.32,0,.63-.13.85-.35s.35-.53.35-.85c0-.64-.56-1.21-1.21-1.21H3.22Z"/></svg>