<svg width="25" height="25" xmlns="http://www.w3.org/2000/svg" viewBox="0 0 24 24"><path fill="currentColor" d="M15.8,20.7h-7.6c-2.7,0-4.9-2.2-4.9-4.9v-2.43c0-.61.49-1.1,1.1-1.1s1.1.49,1.1,1.1v2.43c0,1.49,1.21,2.7,2.7,2.7h7.6c1.49,0,2.7-1.21,2.7-2.7v-2.43c0-.61.49-1.1,1.1-1.1s1.1.49,1.1,1.1v2.43c0,2.7-2.2,4.9-4.9,4.9Z"/><path fill="currentColor" d="M12,15.95c-.61,0-1.1-.49-1.1-1.1v-7.79l-1.92,1.92c-.43.43-1.13.43-1.56,0-.43-.43-.43-1.13,0-1.56l3.8-3.8s0,0,0,0h0s0,0,0,0c0,0,0,0,0,0,0,0,0,0,0,0,0,0,0,0,0,0,0,0,0,0,0,0h0s0,0,0,0c0,0,0,0,0,0,0,0,0,0,0,0h0s0,0,0,0c0,0,0,0,0,0h0s0,0,0,0c0,0,0,0,0,0,0,0,0,0,0,0,.1-.09.2-.15.31-.2.13-.05.26-.08.41-.08h.03c.14,0,.27.03.4.08.12.05.23.11.32.2h0s0,0,0,0h0s0,0,0,0c0,0,0,0,0,0h0s0,0,0,0c0,0,0,0,0,0h0s0,0,0,0c0,0,0,0,0,0,0,0,0,0,0,0h0s0,0,0,0c0,0,0,0,0,0,0,0,0,0,0,0,0,0,0,0,0,0,0,0,0,0,0,0s0,0,0,0h0s0,0,0,0l3.8,3.8c.43.43.43,1.13,0,1.56s-1.13.43-1.56,0l-1.92-1.92v7.79c0,.61-.49,1.1-1.1,1.1Z"/></svg>