<?xml version="1.0" encoding="UTF-8"?><svg id="Ebene_2" xmlns="http://www.w3.org/2000/svg" viewBox="0 0 437.38 316.17"><defs><style>.cls-1{fill:#ebebeb;}.cls-1,.cls-2,.cls-3,.cls-4,.cls-5,.cls-6,.cls-7,.cls-8,.cls-9{stroke-width:0px;}.cls-2{fill:#02465c;}.cls-3{fill:#d7d7d7;}.cls-4{fill:#999;}.cls-5{fill:#000;}.cls-6{fill:#020000;}.cls-7{fill:#ccc;}.cls-8{fill:#fff;}.cls-9{fill:#e6e6e6;}</style></defs><g id="Ebene_1-2"><path class="cls-9" d="M17,90.74l24.22-5.14c11.46-2.4,18.26,1.41,20.38,11.43.49,2.31.74,4.93.74,7.86l.03,16.19c-.02,7.47-2.37,12.97-7.04,16.48,3.42,1.11,5.59,3.81,6.5,8.12.33,1.58.5,3.37.48,5.39l.04,16.24c-.02,15.78-7.36,25.25-22.03,28.4l-23.33,4.95v-109.93ZM34.52,150.77v28.66s5.19-1.1,5.19-1.1c3.43-.73,5.15-3.16,5.15-7.3l-.04-16.24c0-.69-.06-1.34-.19-1.94-.39-1.82-1.42-2.88-3.09-3.19-.58-.13-1.79,0-3.65.39l-3.36.71ZM34.48,104.54l.04,28.65,3.36-.71c1.89-.4,3.11-.77,3.66-1.11,2.2-1.38,3.3-3.57,3.33-6.58l-.03-16.19c.01-.81-.05-1.53-.18-2.16-.55-2.59-2.21-3.59-4.98-3.01l-5.2,1.1Z"/><path class="cls-9" d="M74.42,91.73l22.96-4.87c11.74-2.46,18.59.92,20.55,10.13.39,1.86.58,3.96.57,6.3v14.27c0,8.75-3.82,15.24-11.45,19.46l16.87,40.95-19.07,4.05-11.97-39.08-.95.2v41.62s-17.5,3.71-17.5,3.71v-96.75ZM91.95,103.43l-.03,25.21,2.1-.45c1.89-.4,3.12-.75,3.67-1.05,2.22-1.28,3.32-3.23,3.31-5.86v-14.27c0-.66-.06-1.25-.17-1.78-.5-2.35-2.15-3.22-4.95-2.63l-3.94.84Z"/><path class="cls-9" d="M176.56,132.09l5,33.64-17.65,3.75-2.87-19.49-12.87,2.73-2.96,20.72-17.6,3.74,4.96-35.59,10.69-64.48,22.7-4.82,10.61,59.79ZM158.72,135l-4.16-28.38-4.25,30.17,8.41-1.78Z"/><path class="cls-9" d="M190.75,67.03l17.5-3.71v96.75s-17.49,3.71-17.49,3.71v-96.75Z"/><path class="cls-9" d="M222.17,60.36l17.29-3.67,11.68,45.18v-47.66s16.38-3.48,16.38-3.48v96.75s-17.28,3.67-17.28,3.67l-11.15-43.98v46.34s-16.91,3.59-16.91,3.59V60.36Z"/><path class="cls-9" d="M68.15,230.53c0-15.82,7.56-25.33,22.66-28.53,12.47-2.65,19.8,1.18,21.98,11.48.46,2.17.69,4.65.7,7.43l.02,15.59-17.5,3.71-.02-15.59c.01-.81-.05-1.53-.18-2.16-.54-2.52-2.19-3.51-4.96-2.95l-.11.02c-3.4.72-5.1,3.15-5.1,7.29v9.78c-.02.48.03.96.13,1.45.86,4.03,5.29,8.19,13.3,12.49,7.71,4.07,12.33,9.72,13.86,16.93.39,1.82.57,3.72.55,5.7l-.02,13.62c0,15.85-7.55,25.38-22.65,28.58-12.48,2.61-19.81-1.23-21.99-11.53-.46-2.17-.69-4.65-.7-7.43l-.02-15.59,17.5-3.71.02,15.59c-.01.81.05,1.53.18,2.16.54,2.56,2.21,3.54,5.02,2.94,3.43-.73,5.15-3.16,5.15-7.3l.02-12.3c0-.55-.07-1.1-.19-1.66-.91-4.31-5.34-8.6-13.28-12.88-7.63-4.05-12.23-9.74-13.78-17.06-.4-1.89-.6-3.88-.61-5.97v-10.1Z"/><path class="cls-9" d="M167.23,200.65l.03,15.42-13.92,2.96-.03,81.33-17.5,3.71.03-81.33-13.92,2.96-.03-15.42,45.34-9.63Z"/><path class="cls-9" d="M220.92,251.3l5,33.64-17.65,3.75-2.87-19.49-12.87,2.73-2.96,20.72-17.6,3.74,4.96-35.59,10.69-64.48,22.7-4.82,10.61,59.79ZM203.09,254.21l-4.16-28.38-4.25,30.17,8.41-1.78Z"/><path class="cls-9" d="M279.14,254.48c-.01,13.91-7.58,22.49-22.7,25.74-12.71,2.7-20.08-.68-22.08-10.14-.38-1.79-.56-3.78-.56-5.98v-57.98c0-13.91,7.56-22.47,22.65-25.68,12.75-2.71,20.12.65,22.12,10.07.38,1.79.56,3.78.56,5.98v13.73s-17.49,3.71-17.49,3.71v-13.73c0-.66-.05-1.23-.15-1.73-.5-2.35-2.15-3.24-4.96-2.68l-.11.02c-3.4.72-5.11,2.92-5.14,6.58v57.98c0,.63.04,1.2.16,1.73.5,2.35,2.17,3.22,5,2.62,3.47-.74,5.2-2.92,5.2-6.54v-13.73s17.49-3.71,17.49-3.71v13.73Z"/><path class="cls-9" d="M320.86,216.41l20.07,44.11-18.7,3.97-13.52-33.15v36.02s-17.48,3.71-17.48,3.71v-96.75s17.49-3.71,17.49-3.71v36.02s13.5-38.88,13.5-38.88l18.7-3.97-20.07,52.63Z"/><path class="cls-9" d="M434.86,76.97c-.7-1.33-2.4-4.14-3.64-4.87.71-1.41-.33-6.33-.78-7.84-1.25-4.11-4.36-8.39-8.26-10.09-.15-.06-.3-.11-.46-.14.08-1.45-2.61-4.92-3.62-5.97-1.58-1.64-5.8-4.72-8.12-4.82-.16-1.77-2.44-4.47-3.69-5.62-4.14-3.82-10.78-5.71-16.59-5.13-2.25-2.16-4.71-3.87-7.66-4.97-4.78-1.79-9.89-1.9-14.88.46-.48-.24-.96-.47-1.46-.67-.49-.21-1-.39-1.51-.56s-1.03-.32-1.55-.44c-.52-.13-1.06-.24-1.59-.32-5.95-1.04-12.37-.18-17.78,3.54-.52-.08-1.04-.13-1.57-.17-.53-.04-1.06-.06-1.59-.07-.53,0-1.06,0-1.6.03-.53.03-1.07.07-1.6.14-6.07.73-12.09,3.69-16.31,8.62-3.41.27-6.5.9-9.74,2.38-3.66,1.68-9.52,5.97-11.25,9.82-1.64.7-3.29,1.38-4.86,2.28-3.74,2.15-7.14,5.62-9.03,9.57-.61,1.27-1.13,2.68-1.35,4.05-4.27,2.5-7.3,6.57-8.87,11.27-.65,1.95-1.08,4.09-1.05,6.09-3.37,5.42-4.89,10.84-3.73,16.88,1.06,5.49,4.08,10.29,8.72,13.04,3.88,2.3,9.25,3.04,13.88,1.75,1.32,6.29,4.41,11.21,9.85,14.32,6.67,3.8,15.02,3.65,22.66,1.26,3.8-1.19,7.23-2.91,10.79-4.82,3.27,4.67,6.88,7.51,12.79,8.14,4.38.47,9.05-.59,13.43-1.62,4.26,3.68,8.05,5.91,13.64,7.3,2.86,4.37,8.01,12.83,13.46,13.55,1.54.2,3.22-.18,4.56-1.19,1.1-.83,1.82-1.99,2.1-3.32.13-.64.13-1.27.05-1.9-.15-1.16-.55-2.26-.82-3.38-.21-.87-.32-1.79-.46-2.68-.06-.36-.11-.68-.29-.99,6.15-1.15,11.9-3.71,15.98-9.07.6-.79,2.45-3.39,2.39-4.25,5.07-.71,9.47-3.1,12.93-7.26,3.8-4.58,4.84-9.53,4.59-15.1-.03-.76-.05-1.79-.37-2.46,2.49-1.55,5.1-6.52,5.94-9.26,1.64-5.33.69-10.98-1.7-15.5Z"/><path class="cls-7" d="M12,80.74l24.22-5.14c11.46-2.4,18.26,1.41,20.38,11.43.49,2.31.74,4.93.74,7.86l.03,16.19c-.02,7.47-2.37,12.97-7.04,16.48,3.42,1.11,5.59,3.81,6.5,8.12.33,1.58.5,3.37.48,5.39l.04,16.24c-.02,15.78-7.36,25.25-22.03,28.4l-23.33,4.95v-109.93ZM29.52,140.77v28.66s5.19-1.1,5.19-1.1c3.43-.73,5.15-3.16,5.15-7.3l-.04-16.24c0-.69-.06-1.34-.19-1.94-.39-1.82-1.42-2.88-3.09-3.19-.58-.13-1.79,0-3.65.39l-3.36.71ZM29.48,94.54l.04,28.65,3.36-.71c1.89-.4,3.11-.77,3.66-1.11,2.2-1.38,3.3-3.57,3.33-6.58l-.03-16.19c.01-.81-.05-1.53-.18-2.16-.55-2.59-2.21-3.59-4.98-3.01l-5.2,1.1Z"/><path class="cls-7" d="M69.42,81.73l22.96-4.87c11.74-2.46,18.59.92,20.55,10.13.39,1.86.58,3.96.57,6.3v14.27c0,8.75-3.82,15.24-11.45,19.46l16.87,40.95-19.07,4.05-11.97-39.08-.95.2v41.62s-17.5,3.71-17.5,3.71v-96.75ZM86.95,93.43l-.03,25.21,2.1-.45c1.89-.4,3.12-.75,3.67-1.05,2.22-1.28,3.32-3.23,3.31-5.86v-14.27c0-.66-.06-1.25-.17-1.78-.5-2.35-2.15-3.22-4.95-2.63l-3.94.84Z"/><path class="cls-7" d="M171.56,122.09l5,33.64-17.65,3.75-2.87-19.49-12.87,2.73-2.96,20.72-17.6,3.74,4.96-35.59,10.69-64.48,22.7-4.82,10.61,59.79ZM153.72,125l-4.16-28.38-4.25,30.17,8.41-1.78Z"/><path class="cls-7" d="M185.75,57.03l17.5-3.71v96.75s-17.49,3.71-17.49,3.71V57.03Z"/><path class="cls-7" d="M217.17,50.36l17.29-3.67,11.68,45.18v-47.66s16.38-3.48,16.38-3.48v96.75s-17.28,3.67-17.28,3.67l-11.15-43.98v46.34s-16.91,3.59-16.91,3.59V50.36Z"/><path class="cls-7" d="M63.15,220.53c0-15.82,7.56-25.33,22.66-28.53,12.47-2.65,19.8,1.18,21.98,11.48.46,2.17.69,4.65.7,7.43l.02,15.59-17.5,3.71-.02-15.59c.01-.81-.05-1.53-.18-2.16-.54-2.52-2.19-3.51-4.96-2.95l-.11.02c-3.4.72-5.1,3.15-5.1,7.29v9.78c-.02.48.03.96.13,1.45.86,4.03,5.29,8.19,13.3,12.49,7.71,4.07,12.33,9.72,13.86,16.93.39,1.82.57,3.72.55,5.7l-.02,13.62c0,15.85-7.55,25.38-22.65,28.58-12.48,2.61-19.81-1.23-21.99-11.53-.46-2.17-.69-4.65-.7-7.43l-.02-15.59,17.5-3.71.02,15.59c-.01.81.05,1.53.18,2.16.54,2.56,2.21,3.54,5.02,2.94,3.43-.73,5.15-3.16,5.15-7.3l.02-12.3c0-.55-.07-1.1-.19-1.66-.91-4.31-5.34-8.6-13.28-12.88-7.63-4.05-12.23-9.74-13.78-17.06-.4-1.89-.6-3.88-.61-5.97v-10.1Z"/><path class="cls-7" d="M162.23,190.65l.03,15.42-13.92,2.96-.03,81.33-17.5,3.71.03-81.33-13.92,2.96-.03-15.42,45.34-9.63Z"/><path class="cls-7" d="M215.92,241.3l5,33.64-17.65,3.75-2.87-19.49-12.87,2.73-2.96,20.72-17.6,3.74,4.96-35.59,10.69-64.48,22.7-4.82,10.61,59.79ZM198.09,244.21l-4.16-28.38-4.25,30.17,8.41-1.78Z"/><path class="cls-7" d="M274.14,244.48c-.01,13.91-7.58,22.49-22.7,25.74-12.71,2.7-20.08-.68-22.08-10.14-.38-1.79-.56-3.78-.56-5.98v-57.98c0-13.91,7.56-22.47,22.65-25.68,12.75-2.71,20.12.65,22.12,10.07.38,1.79.56,3.78.56,5.98v13.73s-17.49,3.71-17.49,3.71v-13.73c0-.66-.05-1.23-.15-1.73-.5-2.35-2.15-3.24-4.96-2.68l-.11.02c-3.4.72-5.11,2.92-5.14,6.58v57.98c0,.63.04,1.2.16,1.73.5,2.35,2.17,3.22,5,2.62,3.47-.74,5.2-2.92,5.2-6.54v-13.73s17.49-3.71,17.49-3.71v13.73Z"/><path class="cls-7" d="M315.86,206.41l20.07,44.11-18.7,3.97-13.52-33.15v36.02s-17.48,3.71-17.48,3.71v-96.75s17.49-3.71,17.49-3.71v36.02s13.5-38.88,13.5-38.88l18.7-3.97-20.07,52.63Z"/><path class="cls-7" d="M427.01,69.12c-.7-1.33-2.4-4.14-3.64-4.87.71-1.41-.33-6.33-.78-7.84-1.25-4.11-4.36-8.39-8.26-10.09-.15-.06-.3-.11-.46-.14.08-1.45-2.61-4.92-3.62-5.97-1.58-1.64-5.8-4.72-8.12-4.82-.16-1.77-2.44-4.47-3.69-5.62-4.14-3.82-10.78-5.71-16.59-5.13-2.25-2.16-4.71-3.87-7.66-4.97-4.78-1.79-9.89-1.9-14.88.46-.48-.24-.96-.47-1.46-.67-.49-.21-1-.39-1.51-.56s-1.03-.32-1.55-.44c-.52-.13-1.06-.24-1.59-.32-5.95-1.04-12.37-.18-17.78,3.54-.52-.08-1.04-.13-1.57-.17-.53-.04-1.06-.06-1.59-.07-.53,0-1.06,0-1.6.03-.53.03-1.07.07-1.6.14-6.07.73-12.09,3.69-16.31,8.62-3.41.27-6.5.9-9.74,2.38-3.66,1.68-9.52,5.97-11.25,9.82-1.64.7-3.29,1.38-4.86,2.28-3.74,2.15-7.14,5.62-9.03,9.57-.61,1.27-1.13,2.68-1.35,4.05-4.27,2.5-7.3,6.57-8.87,11.27-.65,1.95-1.08,4.09-1.05,6.09-3.37,5.42-4.89,10.84-3.73,16.88,1.06,5.49,4.08,10.29,8.72,13.04,3.88,2.3,9.25,3.04,13.88,1.75,1.32,6.29,4.41,11.21,9.85,14.32,6.67,3.8,15.02,3.65,22.66,1.26,3.8-1.19,7.23-2.91,10.79-4.82,3.27,4.67,6.88,7.51,12.79,8.14,4.38.47,9.05-.59,13.43-1.62,4.26,3.68,8.05,5.91,13.64,7.3,2.86,4.37,8.01,12.83,13.46,13.55,1.54.2,3.22-.18,4.56-1.19,1.1-.83,1.82-1.99,2.1-3.32.13-.64.13-1.27.05-1.9-.15-1.16-.55-2.26-.82-3.38-.21-.87-.32-1.79-.46-2.68-.06-.36-.11-.68-.29-.99,6.15-1.15,11.9-3.71,15.98-9.07.6-.79,2.45-3.39,2.39-4.25,5.07-.71,9.47-3.1,12.93-7.26,3.8-4.58,4.84-9.53,4.59-15.1-.03-.76-.05-1.79-.37-2.46,2.49-1.55,5.1-6.52,5.94-9.26,1.64-5.33.69-10.98-1.7-15.5Z"/><path class="cls-4" d="M7,70.74l24.22-5.14c11.46-2.4,18.26,1.41,20.38,11.43.49,2.31.74,4.93.74,7.86l.03,16.19c-.02,7.47-2.37,12.97-7.04,16.48,3.42,1.11,5.59,3.81,6.5,8.12.33,1.58.5,3.37.48,5.39l.04,16.24c-.02,15.78-7.36,25.25-22.03,28.4l-23.33,4.95v-109.93ZM24.52,130.77v28.66s5.19-1.1,5.19-1.1c3.43-.73,5.15-3.16,5.15-7.3l-.04-16.24c0-.69-.06-1.34-.19-1.94-.39-1.82-1.42-2.88-3.09-3.19-.58-.13-1.79,0-3.65.39l-3.36.71ZM24.48,84.54l.04,28.65,3.36-.71c1.89-.4,3.11-.77,3.66-1.11,2.2-1.38,3.3-3.57,3.33-6.58l-.03-16.19c.01-.81-.05-1.53-.18-2.16-.55-2.59-2.21-3.59-4.98-3.01l-5.2,1.1Z"/><path class="cls-4" d="M64.42,71.72l22.96-4.87c11.74-2.46,18.59.92,20.55,10.13.39,1.86.58,3.96.57,6.3v14.27c0,8.75-3.82,15.24-11.45,19.46l16.87,40.95-19.07,4.05-11.97-39.08-.95.2v41.62s-17.5,3.71-17.5,3.71v-96.75ZM81.95,83.43l-.03,25.21,2.1-.45c1.89-.4,3.12-.75,3.67-1.05,2.22-1.28,3.32-3.23,3.31-5.86v-14.27c0-.66-.06-1.25-.17-1.78-.5-2.35-2.15-3.22-4.95-2.63l-3.94.84Z"/><path class="cls-4" d="M166.56,112.09l5,33.64-17.65,3.75-2.87-19.49-12.87,2.73-2.96,20.72-17.6,3.74,4.96-35.59,10.69-64.48,22.7-4.82,10.61,59.79ZM148.72,115l-4.16-28.38-4.25,30.17,8.41-1.78Z"/><path class="cls-4" d="M180.75,47.03l17.5-3.71v96.75s-17.49,3.71-17.49,3.71V47.03Z"/><path class="cls-4" d="M212.17,40.36l17.29-3.67,11.68,45.18v-47.66s16.38-3.48,16.38-3.48v96.75s-17.28,3.67-17.28,3.67l-11.15-43.98v46.34s-16.91,3.59-16.91,3.59V40.36Z"/><path class="cls-4" d="M58.15,210.53c0-15.82,7.56-25.33,22.66-28.53,12.47-2.65,19.8,1.18,21.98,11.48.46,2.17.69,4.65.7,7.43l.02,15.59-17.5,3.71-.02-15.59c.01-.81-.05-1.53-.18-2.16-.54-2.52-2.19-3.51-4.96-2.95l-.11.02c-3.4.72-5.1,3.15-5.1,7.29v9.78c-.02.48.03.96.13,1.45.86,4.03,5.29,8.19,13.3,12.49,7.71,4.07,12.33,9.72,13.86,16.93.39,1.82.57,3.72.55,5.7l-.02,13.62c0,15.85-7.55,25.38-22.65,28.58-12.48,2.61-19.81-1.23-21.99-11.53-.46-2.17-.69-4.65-.7-7.43l-.02-15.59,17.5-3.71.02,15.59c-.01.81.05,1.53.18,2.16.54,2.56,2.21,3.54,5.02,2.94,3.43-.73,5.15-3.16,5.15-7.3l.02-12.3c0-.55-.07-1.1-.19-1.66-.91-4.31-5.34-8.6-13.28-12.88-7.63-4.05-12.23-9.74-13.78-17.06-.4-1.89-.6-3.88-.61-5.97v-10.1Z"/><path class="cls-4" d="M157.23,180.65l.03,15.42-13.92,2.96-.03,81.33-17.5,3.71.03-81.33-13.92,2.96-.03-15.42,45.34-9.63Z"/><path class="cls-4" d="M210.92,231.3l5,33.64-17.65,3.75-2.87-19.49-12.87,2.73-2.96,20.72-17.6,3.74,4.96-35.59,10.69-64.48,22.7-4.82,10.61,59.79ZM193.09,234.21l-4.16-28.38-4.25,30.17,8.41-1.78Z"/><path class="cls-4" d="M269.14,234.48c-.01,13.91-7.58,22.49-22.7,25.74-12.71,2.7-20.08-.68-22.08-10.14-.38-1.79-.56-3.78-.56-5.98v-57.98c0-13.91,7.56-22.47,22.65-25.68,12.75-2.71,20.12.65,22.12,10.07.38,1.79.56,3.78.56,5.98v13.73s-17.49,3.71-17.49,3.71v-13.73c0-.66-.05-1.23-.15-1.73-.5-2.35-2.15-3.24-4.96-2.68l-.11.02c-3.4.72-5.11,2.92-5.14,6.58v57.98c0,.63.04,1.2.16,1.73.5,2.35,2.17,3.22,5,2.62,3.47-.74,5.2-2.92,5.2-6.54v-13.73s17.49-3.71,17.49-3.71v13.73Z"/><path class="cls-4" d="M310.86,196.41l20.07,44.11-18.7,3.97-13.52-33.15v36.02s-17.48,3.71-17.48,3.71v-96.75s17.49-3.71,17.49-3.71v36.02s13.5-38.88,13.5-38.88l18.7-3.97-20.07,52.63Z"/><path class="cls-4" d="M419.16,61.26c-.7-1.33-2.4-4.14-3.64-4.87.71-1.41-.33-6.33-.78-7.84-1.25-4.11-4.36-8.39-8.26-10.09-.15-.06-.3-.11-.46-.14.08-1.45-2.61-4.92-3.62-5.97-1.58-1.64-5.8-4.72-8.12-4.82-.16-1.77-2.44-4.47-3.69-5.62-4.14-3.82-10.78-5.71-16.59-5.13-2.25-2.16-4.71-3.87-7.66-4.97-4.78-1.79-9.89-1.9-14.88.46-.48-.24-.96-.47-1.46-.67-.49-.21-1-.39-1.51-.56s-1.03-.32-1.55-.44c-.52-.13-1.06-.24-1.59-.32-5.95-1.04-12.37-.18-17.78,3.54-.52-.08-1.04-.13-1.57-.17-.53-.04-1.06-.06-1.59-.07-.53,0-1.06,0-1.6.03-.53.03-1.07.07-1.6.14-6.07.73-12.09,3.69-16.31,8.62-3.41.27-6.5.9-9.74,2.38-3.66,1.68-9.52,5.97-11.25,9.82-1.64.7-3.29,1.38-4.86,2.28-3.74,2.15-7.14,5.62-9.03,9.57-.61,1.27-1.13,2.68-1.35,4.05-4.27,2.5-7.3,6.57-8.87,11.27-.65,1.95-1.08,4.09-1.05,6.09-3.37,5.42-4.89,10.84-3.73,16.88,1.06,5.49,4.08,10.29,8.72,13.04,3.88,2.3,9.25,3.04,13.88,1.75,1.32,6.29,4.41,11.21,9.85,14.32,6.67,3.8,15.02,3.65,22.66,1.26,3.8-1.19,7.23-2.91,10.79-4.82,3.27,4.67,6.88,7.51,12.79,8.14,4.38.47,9.05-.59,13.43-1.62,4.26,3.68,8.05,5.91,13.64,7.3,2.86,4.37,8.01,12.83,13.46,13.55,1.54.2,3.22-.18,4.56-1.19,1.1-.83,1.82-1.99,2.1-3.32.13-.64.13-1.27.05-1.9-.15-1.16-.55-2.26-.82-3.38-.21-.87-.32-1.79-.46-2.68-.06-.36-.11-.68-.29-.99,6.15-1.15,11.9-3.71,15.98-9.07.6-.79,2.45-3.39,2.39-4.25,5.07-.71,9.47-3.1,12.93-7.26,3.8-4.58,4.84-9.53,4.59-15.1-.03-.76-.05-1.79-.37-2.46,2.49-1.55,5.1-6.52,5.94-9.26,1.64-5.33.69-10.98-1.7-15.5Z"/><path class="cls-5" d="M2,171.66c-.23,0-.45-.08-.63-.22-.23-.19-.37-.48-.37-.78V60.74c0-.47.33-.88.79-.98l24.22-5.14c2.27-.47,4.4-.72,6.32-.72,8.3,0,13.42,4.35,15.25,12.92.5,2.37.76,5.08.76,8.07l.03,16.19c-.02,7.05-2.08,12.49-6.13,16.2,2.86,1.48,4.73,4.23,5.57,8.2.35,1.64.52,3.52.51,5.6l.04,16.24c-.02,16.25-7.7,26.13-22.82,29.38l-23.33,4.95c-.07.01-.14.02-.21.02ZM20.51,148.2l3.99-.85c2.97-.63,4.36-2.64,4.36-6.32l-.04-16.24c0-.62-.06-1.21-.17-1.73-.3-1.42-1.03-2.18-2.29-2.41-.08-.02-.18-.04-.38-.04-.6,0-1.57.14-2.88.42l-2.57.55v26.62ZM20.52,101.96l2.16-.46c2.33-.49,3.1-.83,3.35-.98,1.89-1.19,2.83-3.07,2.85-5.73l-.03-16.18c.01-.75-.04-1.4-.16-1.95-.45-2.11-1.61-2.38-2.58-2.38-.36,0-.77.05-1.21.14l-4.41.94.04,26.61Z"/><path class="cls-8" d="M32.34,54.9c7.8,0,12.55,4.04,14.27,12.13.49,2.31.74,4.93.74,7.86l.03,16.19c-.02,7.47-2.37,12.97-7.04,16.48,3.42,1.11,5.59,3.81,6.5,8.12.33,1.58.5,3.37.48,5.39l.04,16.24c-.02,15.78-7.36,25.25-22.03,28.4l-23.33,4.95V60.74l24.22-5.14c2.21-.46,4.25-.69,6.12-.69M19.52,103.19l3.36-.71c1.89-.4,3.11-.77,3.66-1.11,2.2-1.38,3.3-3.57,3.32-6.58l-.03-16.19c.01-.81-.05-1.53-.18-2.16-.45-2.11-1.63-3.17-3.56-3.17-.44,0-.91.05-1.42.16l-5.2,1.1.04,28.65M19.51,149.43l5.2-1.1c3.43-.73,5.15-3.16,5.15-7.3l-.04-16.24c0-.69-.06-1.34-.19-1.94-.39-1.82-1.42-2.88-3.09-3.19-.15-.03-.33-.05-.56-.05-.67,0-1.7.15-3.09.44l-3.36.71v28.66M32.34,52.9h0c-1.99,0-4.19.25-6.53.74L1.58,58.78c-.92.2-1.58,1.01-1.58,1.96v109.93c0,.6.27,1.17.74,1.55.36.29.8.45,1.26.45.14,0,.28-.01.42-.04l23.33-4.95c15.65-3.36,23.6-13.57,23.61-30.35l-.04-16.25c.01-2.13-.17-4.09-.53-5.8-.79-3.73-2.44-6.47-4.93-8.18,3.64-3.85,5.49-9.22,5.51-16l-.03-16.2c0-3.05-.26-5.84-.78-8.27-1.9-8.97-7.51-13.71-16.22-13.71h0ZM21.48,76.16l3.61-.77c.37-.08.71-.12,1-.12.72,0,1.29.12,1.6,1.58.1.48.15,1.06.14,1.71l.03,16.22c-.02,2.31-.78,3.87-2.39,4.88-.03.02-.59.33-3.01.84l-.95.2-.04-24.56h0ZM21.52,122.39l1.78-.38c1.63-.35,2.37-.4,2.67-.4.06,0,.1,0,.15,0,.03,0,.03,0,.06.01.74.13,1.24.45,1.49,1.63.1.46.15.97.15,1.53l.04,16.24c0,4.03-1.8,4.96-3.56,5.34l-2.79.59v-24.57h0Z"/><path class="cls-5" d="M59.43,159.47c-.23,0-.45-.08-.63-.22-.23-.19-.37-.48-.37-.78V61.72c0-.47.33-.88.79-.98l22.96-4.87c2.53-.53,4.87-.8,6.97-.8,8.15,0,13.11,3.94,14.76,11.7.41,1.92.61,4.11.59,6.52v14.27c0,8.8-3.77,15.49-11.19,19.89l16.54,40.14c.11.27.1.58-.04.85s-.39.45-.68.51l-19.07,4.05c-.07.01-.14.02-.21.02-.43,0-.82-.28-.96-.71l-10.96-35.78v38.23c0,.47-.33.88-.8.98l-17.5,3.71c-.07.01-.14.02-.21.02ZM77.93,97.41l.89-.19c2.35-.5,3.14-.81,3.41-.96,1.88-1.08,2.8-2.71,2.79-4.98v-14.28c0-.6-.05-1.12-.15-1.57-.3-1.41-1.02-2.01-2.41-2.01-.4,0-.86.05-1.35.16l-3.15.67-.03,23.16Z"/><path class="cls-8" d="M89.15,56.07c7.64,0,12.24,3.64,13.78,10.91.39,1.86.58,3.96.57,6.3v14.27c0,8.75-3.82,15.24-11.45,19.46l16.87,40.95-19.07,4.05-11.97-39.08-.95.2v41.62s-17.5,3.71-17.5,3.71V61.72s22.96-4.87,22.96-4.87c2.47-.52,4.73-.78,6.76-.78M76.92,98.64l2.1-.45c1.89-.4,3.12-.75,3.67-1.05,2.22-1.28,3.32-3.23,3.31-5.86v-14.27c0-.66-.06-1.25-.17-1.78-.4-1.87-1.53-2.81-3.39-2.81-.47,0-.99.06-1.56.18l-3.94.84-.03,25.21M89.15,54.07h0c-2.17,0-4.58.28-7.17.82l-22.97,4.88c-.92.2-1.58,1.01-1.58,1.96v96.75c0,.6.28,1.17.74,1.55.36.29.8.45,1.26.45.14,0,.28-.01.42-.04l17.5-3.71c.92-.2,1.58-1.01,1.58-1.96v-31.56s9.01,29.4,9.01,29.4c.26.85,1.05,1.41,1.91,1.41.14,0,.28-.01.42-.04l19.07-4.05c.58-.12,1.08-.5,1.35-1.02.28-.53.31-1.15.08-1.7l-16.21-39.35c7.26-4.59,10.95-11.41,10.95-20.29v-14.28c0-2.47-.2-4.73-.62-6.72-1.74-8.17-7.18-12.49-15.74-12.49h0ZM78.95,75.05l2.36-.5c.43-.09.81-.14,1.14-.14.81,0,1.21.18,1.44,1.22.08.38.12.83.11,1.35v14.29c.02,1.92-.69,3.19-2.27,4.11-.13.07-.74.33-2.81.78l.02-21.12h0Z"/><path class="cls-5" d="M112.6,148.18c-.25,0-.5-.09-.68-.27-.24-.22-.35-.55-.31-.87l4.96-35.59,10.7-64.5c.07-.41.38-.73.78-.82l22.7-4.82c.07-.01.14-.02.21-.02.2,0,.39.06.56.17.22.15.38.39.43.65l10.61,59.79,5,33.67c.08.52-.26,1.02-.78,1.13l-17.65,3.75c-.07.01-.14.02-.21.02-.2,0-.4-.06-.57-.18-.23-.16-.38-.4-.42-.68l-2.72-18.43-11.15,2.37-2.86,20.03c-.06.42-.37.75-.78.84l-17.6,3.74c-.07.01-.14.02-.21.02ZM136.51,105.51l6.09-1.29-3.01-20.57-3.08,21.86Z"/><path class="cls-8" d="M150.95,42.29l10.61,59.79,5,33.64-17.65,3.75-2.87-19.49-12.87,2.73-2.96,20.72-17.6,3.74,4.96-35.59,10.69-64.48,22.7-4.82M135.32,106.78l8.41-1.78-4.16-28.38-4.25,30.17M150.95,40.29c-.14,0-.28.01-.42.04l-22.7,4.82c-.81.17-1.42.82-1.56,1.63l-10.69,64.48s0,.03,0,.05l-4.96,35.59c-.09.65.14,1.3.62,1.74.37.35.86.54,1.36.54.14,0,.28-.01.42-.04l17.6-3.74c.82-.17,1.45-.84,1.56-1.67l2.76-19.34,9.42-2,2.56,17.38c.08.55.38,1.04.84,1.35.34.23.74.36,1.14.36.14,0,.28-.01.42-.04l17.65-3.75c1.03-.22,1.72-1.21,1.56-2.25l-5-33.64s0-.04,0-.06l-10.61-59.79c-.09-.53-.4-1.01-.85-1.31-.33-.22-.72-.34-1.12-.34h0ZM137.7,104.23l1.91-13.55,1.87,12.75-3.78.8h0Z"/><path class="cls-5" d="M175.75,134.78c-.23,0-.45-.08-.63-.22-.24-.19-.37-.48-.37-.78V37.03c0-.47.33-.88.79-.98l17.5-3.71c.07-.01.14-.02.21-.02.23,0,.45.08.63.22.23.19.37.48.37.78v96.75c0,.47-.33.88-.79.98l-17.5,3.71c-.07.01-.14.02-.21.02Z"/><path class="cls-8" d="M193.24,33.32v96.75s-17.49,3.71-17.49,3.71V37.03s17.49-3.71,17.49-3.71M193.24,31.32c-.14,0-.28.01-.42.04l-17.5,3.71c-.92.2-1.58,1.01-1.58,1.96v96.75c0,.6.28,1.17.74,1.55.36.29.8.45,1.26.45.14,0,.28-.01.42-.04l17.5-3.71c.92-.2,1.58-1.01,1.58-1.96V33.32c0-.6-.28-1.17-.74-1.55-.36-.29-.8-.45-1.26-.45h0Z"/><path class="cls-5" d="M207.17,128.11c-.23,0-.45-.08-.63-.22-.23-.19-.37-.48-.37-.78V30.36c0-.47.33-.88.79-.98l17.29-3.67c.07-.01.14-.02.21-.02.45,0,.85.3.97.75l9.71,37.56V24.21c-.01-.47.32-.88.78-.98l16.39-3.48c.07-.01.14-.02.21-.02.23,0,.45.08.63.22.23.19.37.48.37.78v96.75c0,.47-.33.88-.79.98l-17.29,3.67c-.07.01-.14.02-.21.02-.45,0-.85-.3-.97-.75l-9.18-36.2v38.32c0,.47-.32.88-.78.98l-16.92,3.59c-.07.01-.14.02-.21.02Z"/><path class="cls-8" d="M252.51,20.73v96.75s-17.28,3.67-17.28,3.67l-11.15-43.98v46.34s-16.91,3.59-16.91,3.59V30.36s17.28-3.67,17.28-3.67l11.68,45.18V24.21s16.38-3.48,16.38-3.48M252.51,18.73c-.14,0-.28.01-.42.04l-16.39,3.48c-.92.2-1.58,1.01-1.58,1.96v31.91s-7.73-29.93-7.73-29.93c-.23-.9-1.04-1.5-1.93-1.5-.14,0-.28.01-.42.04l-17.29,3.67c-.92.2-1.58,1.01-1.58,1.96v96.75c0,.6.28,1.17.74,1.55.36.29.8.45,1.26.45.14,0,.28-.01.42-.04l16.92-3.59c.92-.2,1.58-1.01,1.58-1.96v-30.3s7.2,28.43,7.2,28.43c.23.9,1.04,1.51,1.94,1.51.14,0,.28-.01.42-.04l17.29-3.67c.92-.2,1.58-1.01,1.58-1.96V20.73c0-.6-.27-1.17-.74-1.55-.36-.29-.8-.45-1.26-.45h0Z"/><path class="cls-5" d="M68.89,287.17c-8.79,0-14.18-4.41-16.03-13.11-.47-2.23-.72-4.8-.72-7.64l-.02-15.59c0-.47.33-.88.79-.98l17.5-3.71c.07-.01.14-.02.21-.02.23,0,.45.08.63.22.23.19.37.47.37.78v15.59c0,.74.06,1.39.18,1.95.34,1.62,1.11,2.32,2.57,2.32h0c.38,0,.8-.05,1.26-.15,2.97-.63,4.36-2.64,4.36-6.32l.02-12.31c0-.46-.06-.96-.17-1.45-.85-3.99-5.14-8.09-12.77-12.21-7.86-4.18-12.67-10.14-14.28-17.73-.41-1.95-.63-4.03-.63-6.17v-10.1c0-16.28,7.9-26.21,23.45-29.51,2.61-.55,5.03-.83,7.21-.83,8.75,0,14.11,4.4,15.96,13.08.47,2.23.71,4.79.72,7.63v15.59c.01.47-.32.88-.78.98l-17.5,3.71c-.07.01-.14.02-.21.02-.23,0-.45-.08-.63-.22-.23-.19-.37-.47-.37-.78v-15.59c0-.75-.06-1.4-.18-1.95-.34-1.6-1.14-2.31-2.6-2.31-.36,0-.76.04-1.19.13l-.09.02c-2.94.62-4.3,2.63-4.3,6.31v9.78c-.02.42.02.83.11,1.24.79,3.71,5.09,7.69,12.8,11.82,7.94,4.2,12.78,10.12,14.37,17.61.4,1.88.59,3.88.57,5.92l-.02,13.61c0,16.31-7.89,26.26-23.44,29.56-2.58.54-4.99.81-7.15.81Z"/><path class="cls-8" d="M82.81,171.18c8.25,0,13.24,4.1,14.98,12.29.46,2.17.69,4.65.7,7.43l.02,15.59-17.5,3.71-.02-15.59c.01-.81-.05-1.53-.18-2.16-.44-2.07-1.63-3.1-3.58-3.1-.43,0-.89.05-1.39.15l-.11.02c-3.4.72-5.1,3.15-5.1,7.29v9.78c-.02.48.03.96.13,1.45.86,4.03,5.29,8.19,13.3,12.49,7.71,4.07,12.33,9.72,13.86,16.93.39,1.82.57,3.72.55,5.7l-.02,13.62c0,15.85-7.55,25.38-22.65,28.58-2.52.53-4.84.79-6.94.79-8.29,0-13.31-4.11-15.05-12.32-.46-2.17-.69-4.65-.7-7.43l-.02-15.59,17.5-3.71.02,15.59c-.01.81.05,1.53.18,2.16.44,2.07,1.62,3.11,3.55,3.11.45,0,.94-.06,1.47-.17,3.43-.73,5.15-3.16,5.15-7.3l.02-12.3c0-.55-.07-1.1-.19-1.66-.91-4.31-5.34-8.6-13.28-12.89-7.63-4.05-12.23-9.74-13.78-17.06-.4-1.89-.6-3.88-.61-5.97v-10.1c0-15.82,7.56-25.33,22.66-28.53,2.55-.54,4.88-.81,7-.81M82.81,169.18h0c-2.25,0-4.75.29-7.42.86-16.08,3.41-24.23,13.67-24.24,30.49v10.1c0,2.22.23,4.36.65,6.38,1.68,7.89,6.65,14.09,14.8,18.41,7.35,3.96,11.48,7.85,12.26,11.53.09.43.14.86.14,1.27l-.02,12.28c0,4.04-1.8,4.97-3.56,5.35-.39.08-.74.12-1.05.12-.72,0-1.29-.11-1.59-1.53-.1-.48-.15-1.06-.14-1.71l-.02-15.62c0-.6-.27-1.17-.74-1.55-.36-.29-.8-.45-1.26-.45-.14,0-.28.01-.42.04l-17.5,3.71c-.92.2-1.59,1.01-1.58,1.96l.02,15.59c0,2.91.25,5.54.74,7.84,1.93,9.1,7.81,13.91,17.01,13.91,2.23,0,4.7-.28,7.35-.84,16.08-3.41,24.24-13.69,24.24-30.54l.02-13.62c.02-2.1-.18-4.17-.6-6.12-1.65-7.79-6.66-13.94-14.88-18.29-9.25-4.96-11.79-8.8-12.28-11.14-.07-.34-.11-.68-.1-1v-9.81c.01-4.04,1.79-4.96,3.52-5.33l.11-.02c.34-.07.68-.1.97-.1.74,0,1.32.11,1.62,1.52.1.48.15,1.06.14,1.71v15.62c.02.6.29,1.17.76,1.55.36.29.8.45,1.26.45.14,0,.28-.01.42-.04l17.5-3.71c.92-.2,1.59-1.01,1.58-1.96l-.02-15.59c0-2.91-.26-5.55-.74-7.84-1.93-9.08-7.78-13.87-16.93-13.87h0Z"/><path class="cls-5" d="M120.81,275.07c-.23,0-.45-.08-.63-.22-.23-.19-.37-.48-.37-.78l.03-80.09-12.71,2.7c-.07.01-.14.02-.21.02-.23,0-.45-.08-.63-.22-.23-.19-.37-.47-.37-.78l-.03-15.42c0-.47.33-.88.79-.98l45.34-9.62c.07-.01.14-.02.21-.02.23,0,.45.08.63.22.23.19.37.47.37.78l.04,15.42c0,.47-.33.88-.79.98l-13.13,2.79-.03,80.51c0,.47-.33.88-.79.98l-17.5,3.71c-.07.01-.14.02-.21.02Z"/><path class="cls-8" d="M152.23,170.65l.03,15.42-13.92,2.96-.03,81.33-17.5,3.71.03-81.33-13.92,2.96-.03-15.42,45.34-9.63M152.23,168.65c-.14,0-.28.01-.42.04l-45.34,9.63c-.93.2-1.59,1.01-1.58,1.96l.03,15.42c0,.6.27,1.17.74,1.55.36.29.8.44,1.26.44.14,0,.28-.01.42-.04l11.51-2.44-.03,78.86c0,.6.27,1.17.74,1.55.36.29.8.45,1.26.45.14,0,.28-.01.42-.04l17.5-3.71c.92-.2,1.58-1.01,1.58-1.96l.03-79.71,12.34-2.62c.93-.2,1.59-1.01,1.58-1.96l-.03-15.42c0-.6-.27-1.17-.74-1.55-.36-.29-.8-.44-1.26-.44h0Z"/><path class="cls-5" d="M156.96,267.39c-.25,0-.5-.09-.68-.27-.24-.22-.35-.55-.31-.87l4.96-35.59,10.69-64.51c.07-.41.38-.73.78-.82l22.7-4.82c.07-.01.14-.02.21-.02.2,0,.39.06.56.17.22.15.38.39.43.65l10.61,59.79,5,33.67c.08.52-.26,1.02-.78,1.13l-17.65,3.75c-.07.01-.14.02-.21.02-.2,0-.4-.06-.57-.18-.23-.16-.38-.4-.42-.68l-2.72-18.43-11.15,2.37-2.86,20.03c-.06.42-.37.75-.78.84l-17.6,3.74c-.07.01-.14.02-.21.02ZM180.87,224.72l6.09-1.29-3.01-20.57-3.08,21.86Z"/><path class="cls-8" d="M195.31,161.5l10.61,59.79,5,33.64-17.65,3.75-2.87-19.49-12.87,2.73-2.96,20.72-17.6,3.74,4.96-35.59,10.69-64.48,22.7-4.82M179.68,225.99l8.41-1.78-4.16-28.38-4.25,30.17M195.31,159.5c-.14,0-.28.01-.42.04l-22.7,4.82c-.81.17-1.42.82-1.56,1.63l-10.69,64.48s0,.03,0,.05l-4.96,35.59c-.09.65.14,1.3.62,1.74.37.35.86.54,1.36.54.14,0,.28-.01.42-.04l17.6-3.74c.82-.17,1.45-.84,1.56-1.67l2.76-19.34,9.42-2,2.56,17.38c.08.55.38,1.04.84,1.35.34.23.74.36,1.14.36.14,0,.28-.01.42-.04l17.65-3.75c1.03-.22,1.72-1.21,1.56-2.25l-5-33.64s0-.04,0-.06l-10.61-59.79c-.09-.53-.4-1.01-.85-1.31-.33-.22-.72-.34-1.12-.34h0ZM182.06,223.44l1.91-13.55,1.87,12.75-3.78.8h0Z"/><path class="cls-5" d="M233.76,252.12c-8.54,0-13.72-3.98-15.38-11.83-.39-1.84-.59-3.93-.58-6.19v-57.98c0-14.38,7.89-23.35,23.45-26.65,2.9-.62,5.57-.93,7.94-.93,8.54,0,13.71,3.96,15.37,11.77.39,1.85.58,3.93.58,6.19v13.72c0,.47-.33.88-.79.98l-17.5,3.71c-.07.01-.14.02-.21.02-.23,0-.45-.08-.63-.22-.23-.19-.37-.48-.37-.78v-13.73c0-.6-.04-1.11-.13-1.52-.3-1.44-1.05-2.05-2.49-2.05-.39,0-.82.05-1.3.14l-.09.02c-2.94.62-4.32,2.41-4.35,5.61v57.97c0,.57.04,1.07.13,1.52.3,1.41,1.03,2.01,2.43,2.01.41,0,.88-.05,1.38-.16,3.01-.64,4.41-2.41,4.41-5.56v-13.73c0-.47.33-.88.79-.98l17.5-3.71c.07-.01.14-.02.21-.02.23,0,.45.08.63.22.23.19.37.48.37.78v13.73c0,14.38-7.91,23.37-23.49,26.72-2.88.61-5.53.92-7.89.92Z"/><path class="cls-8" d="M249.18,149.54c8.04,0,12.84,3.66,14.39,10.98.38,1.79.56,3.78.56,5.98v13.73s-17.49,3.71-17.49,3.71v-13.73c0-.66-.05-1.23-.15-1.73-.4-1.89-1.56-2.84-3.47-2.84-.46,0-.95.05-1.49.16l-.11.02c-3.4.72-5.11,2.92-5.14,6.58v57.98c0,.63.04,1.2.16,1.73.4,1.87,1.53,2.8,3.41,2.8.48,0,1.01-.06,1.59-.18,3.47-.74,5.2-2.92,5.2-6.54v-13.73s17.49-3.71,17.49-3.71v13.73c0,13.91-7.58,22.49-22.7,25.74-2.82.6-5.38.9-7.68.9-8.04,0-12.84-3.68-14.41-11.04-.38-1.79-.56-3.78-.56-5.98v-57.98c0-13.91,7.56-22.47,22.65-25.68,2.84-.6,5.42-.91,7.73-.91M249.18,147.54c-2.44,0-5.18.32-8.15.95-16.08,3.41-24.23,12.71-24.25,27.63v57.98c0,2.32.2,4.47.61,6.39,1.75,8.26,7.41,12.62,16.36,12.62,2.42,0,5.15-.32,8.09-.94,16.11-3.46,24.28-12.78,24.29-27.69v-13.73c0-.6-.28-1.17-.75-1.55-.36-.29-.8-.45-1.26-.45-.14,0-.28.01-.42.04l-17.5,3.71c-.92.2-1.58,1.01-1.58,1.96v13.73c0,2.67-1.08,4.04-3.61,4.58-.44.09-.84.14-1.18.14-.93,0-1.25-.27-1.45-1.22-.08-.37-.11-.8-.1-1.27v-58.03c.01-2.71,1.07-4.1,3.54-4.62l.11-.02c.38-.08.76-.12,1.08-.12.97,0,1.3.28,1.51,1.26.07.34.11.78.1,1.29v13.74c0,.6.28,1.17.74,1.55.36.29.8.45,1.26.45.14,0,.28-.01.42-.04l17.5-3.71c.92-.2,1.58-1.01,1.58-1.96v-13.73c0-2.32-.2-4.48-.6-6.39-1.74-8.22-7.4-12.56-16.35-12.56h0Z"/><path class="cls-5" d="M276.23,242.08c-.23,0-.45-.08-.63-.22-.23-.19-.37-.48-.37-.78v-96.75c0-.47.33-.88.79-.98l17.5-3.71c.07-.01.14-.02.21-.02.23,0,.45.08.63.22.23.19.37.48.37.78v30.09s11.56-33.28,11.56-33.28c.11-.33.39-.58.74-.65l18.7-3.97c.07-.01.14-.02.21-.02.29,0,.57.12.76.35.24.28.3.66.17,1.01l-19.92,52.24,19.9,43.73c.13.28.12.59-.02.86s-.39.46-.68.53l-18.71,3.97c-.07.01-.14.02-.21.02-.4,0-.77-.24-.93-.62l-11.59-28.42v30.91c.01.47-.32.88-.78.98l-17.5,3.71c-.07.01-.14.02-.21.02Z"/><path class="cls-8" d="M325.93,133.78l-20.07,52.63,20.07,44.11-18.7,3.97-13.52-33.15v36.02s-17.48,3.71-17.48,3.71v-96.75s17.49-3.71,17.49-3.71v36.02s13.5-38.88,13.5-38.88l18.7-3.97M325.93,131.78c-.14,0-.28.01-.42.04l-18.7,3.97c-.69.15-1.24.64-1.47,1.3l-9.6,27.68v-24.16c0-.6-.28-1.17-.75-1.55-.36-.29-.8-.45-1.26-.45-.14,0-.28.01-.42.04l-17.5,3.71c-.92.2-1.58,1.01-1.58,1.96v96.75c0,.6.28,1.17.74,1.55.36.29.8.45,1.26.45.14,0,.28-.01.42-.04l17.5-3.71c.92-.2,1.59-1.01,1.58-1.96v-25.8s9.65,23.69,9.65,23.69c.31.76,1.05,1.25,1.85,1.25.14,0,.28-.01.42-.04l18.7-3.97c.59-.13,1.1-.51,1.37-1.06.27-.54.29-1.18.03-1.73l-19.73-43.35,19.77-51.85c.26-.68.13-1.46-.35-2.01-.38-.45-.94-.7-1.52-.7h0Z"/><path class="cls-4" d="M367.2,130.82c-.32,0-.63-.02-.94-.06-5.54-.73-10.38-8.17-13.57-13.09l-.38-.58c-5.07-1.31-8.86-3.34-13.28-7.08-3.4.79-7.21,1.64-10.94,1.64-.8,0-1.58-.04-2.32-.12-5.42-.58-9.35-2.94-12.98-7.84-3.58,1.91-6.74,3.41-10.19,4.48-3.72,1.17-7.4,1.76-10.93,1.76-4.7,0-8.91-1.04-12.52-3.1-5.16-2.94-8.55-7.64-10.11-13.97-1.29.28-2.63.42-4,.42-3.48,0-6.9-.9-9.64-2.52-4.7-2.79-8.05-7.79-9.19-13.71-1.12-5.85.05-11.37,3.71-17.35,0-1.87.38-3.98,1.1-6.12,1.65-4.94,4.81-9.03,8.92-11.57.24-1.19.69-2.49,1.35-3.85,1.92-4.02,5.36-7.67,9.44-10.01,1.49-.85,3.05-1.52,4.56-2.16l.06-.03c2.08-4.13,8.06-8.36,11.57-9.96,2.94-1.34,5.94-2.1,9.67-2.44,4.2-4.73,10.25-7.87,16.68-8.65.56-.07,1.11-.11,1.67-.14.46-.02.91-.04,1.37-.04h.29c.55,0,1.11.03,1.65.08.42.03.83.08,1.25.13,3.86-2.56,8.47-3.91,13.37-3.91,1.59,0,3.21.14,4.82.42.55.09,1.11.21,1.66.34.55.13,1.09.29,1.63.46.54.18,1.06.37,1.58.59.37.15.73.32,1.09.49,2.51-1.12,5.14-1.68,7.82-1.68,2.44,0,4.93.47,7.4,1.39,2.75,1.03,5.26,2.62,7.67,4.87.57-.04,1.15-.07,1.73-.07,5.68,0,11.49,2.11,15.17,5.5.93.85,3.2,3.31,3.85,5.46,2.84.62,6.72,3.69,8,5.02.04.04,3.21,3.52,3.8,5.91,3.88,1.71,7.31,5.91,8.77,10.7.02.06,1.42,5.14.97,7.75,1.57,1.42,3.18,4.41,3.38,4.79,2.72,5.14,3.36,11.07,1.77,16.26-.72,2.34-3.05,7.2-5.72,9.35.14.61.16,1.27.19,1.84v.18c.3,6.55-1.19,11.42-4.81,15.79-3.42,4.12-7.75,6.64-12.88,7.51-.48,1.34-1.78,3.13-2.42,3.97-3.61,4.74-8.69,7.77-15.51,9.24,0,.03.11.75.11.75.1.68.19,1.31.34,1.92.09.36.19.72.29,1.08.21.76.44,1.56.55,2.4.11.8.08,1.53-.06,2.23-.33,1.59-1.19,2.94-2.48,3.91-1.24.93-2.79,1.44-4.35,1.44h0Z"/><path class="cls-8" d="M332.85,2c1.56,0,3.12.14,4.65.41.54.09,1.07.2,1.59.33.53.13,1.04.28,1.55.44.51.17,1.01.35,1.51.56.49.21.98.43,1.46.67,2.6-1.23,5.23-1.79,7.83-1.79,2.39,0,4.76.47,7.05,1.33,2.95,1.1,5.41,2.81,7.66,4.97.69-.07,1.39-.1,2.09-.1,5.26,0,10.84,1.87,14.5,5.23,1.25,1.15,3.53,3.85,3.69,5.62,2.32.1,6.53,3.18,8.12,4.82,1.01,1.05,3.7,4.52,3.62,5.97.16.04.31.08.46.14,3.9,1.71,7.01,5.98,8.26,10.09.46,1.51,1.49,6.43.78,7.84,1.24.74,2.94,3.55,3.64,4.87,2.39,4.52,3.34,10.17,1.7,15.5-.84,2.74-3.44,7.71-5.94,9.26.32.66.34,1.69.37,2.46.25,5.57-.79,10.52-4.59,15.1-3.46,4.17-7.86,6.56-12.93,7.26.05.85-1.8,3.46-2.39,4.25-4.09,5.36-9.83,7.93-15.98,9.07.18.31.23.64.29.99.14.89.25,1.81.46,2.68.27,1.12.67,2.22.82,3.38.08.62.08,1.26-.05,1.9-.28,1.33-1,2.49-2.1,3.32-1.11.83-2.45,1.24-3.75,1.24-.27,0-.54-.02-.81-.05-5.44-.72-10.59-9.19-13.46-13.55-5.59-1.39-9.38-3.62-13.64-7.3-3.65.85-7.5,1.73-11.21,1.73-.74,0-1.48-.04-2.22-.11-5.91-.63-9.52-3.47-12.79-8.14-3.55,1.91-6.98,3.63-10.79,4.82-3.47,1.09-7.09,1.71-10.63,1.71-4.25,0-8.39-.9-12.02-2.97-5.44-3.1-8.53-8.03-9.85-14.32-1.53.43-3.14.63-4.75.63-3.27,0-6.53-.84-9.13-2.38-4.64-2.76-7.67-7.56-8.72-13.04-1.16-6.03.36-11.46,3.73-16.88-.04-2,.39-4.14,1.05-6.09,1.57-4.7,4.6-8.76,8.87-11.27.22-1.36.74-2.78,1.35-4.05,1.89-3.96,5.29-7.43,9.03-9.57,1.57-.9,3.22-1.58,4.86-2.28,1.72-3.85,7.59-8.15,11.25-9.82,3.23-1.48,6.33-2.11,9.74-2.38,4.23-4.92,10.24-7.89,16.31-8.62.53-.06,1.07-.11,1.6-.14.44-.02.87-.03,1.31-.03.1,0,.19,0,.29,0,.53,0,1.06.03,1.59.07.53.04,1.05.1,1.57.17,4.02-2.76,8.59-3.95,13.13-3.95M332.85,0c-4.96,0-9.65,1.34-13.61,3.87-.31-.04-.62-.07-.93-.09-.57-.04-1.15-.07-1.72-.08h-.31c-.47,0-.94.01-1.41.04-.57.03-1.16.08-1.73.15-6.54.79-12.7,3.94-17.05,8.68-3.67.36-6.66,1.14-9.6,2.49-3.65,1.67-9.53,5.81-11.88,10.09-1.45.62-2.95,1.27-4.4,2.1-4.25,2.44-7.84,6.25-9.84,10.45-.61,1.28-1.06,2.51-1.33,3.66-4.13,2.68-7.3,6.86-8.98,11.88-.72,2.14-1.11,4.25-1.15,6.16-3.68,6.11-4.85,11.79-3.69,17.82,1.19,6.2,4.72,11.45,9.67,14.38,2.89,1.72,6.5,2.66,10.15,2.66,1.11,0,2.21-.09,3.27-.26,1.72,6.15,5.19,10.74,10.34,13.68,3.76,2.15,8.14,3.23,13.01,3.23,3.63,0,7.41-.61,11.23-1.8,3.27-1.02,6.28-2.41,9.61-4.16,3.67,4.69,7.69,6.97,13.16,7.56.78.08,1.59.12,2.43.12,3.66,0,7.47-.81,10.68-1.55,4.27,3.56,8.02,5.55,12.92,6.87l.17.26c3.3,5.07,8.28,12.74,14.28,13.53.35.05.71.07,1.07.07,1.78,0,3.54-.58,4.95-1.64,1.46-1.1,2.48-2.7,2.86-4.51.17-.82.2-1.66.08-2.57-.12-.91-.35-1.73-.58-2.53-.1-.35-.2-.7-.28-1.05-.13-.52-.21-1.08-.3-1.67,6.61-1.59,11.59-4.68,15.18-9.4,1.26-1.65,1.96-2.84,2.34-3.69,5.13-.99,9.47-3.6,12.93-7.76,3.74-4.51,5.35-9.74,5.05-16.47v-.18c-.03-.44-.05-.92-.11-1.42,2.56-2.36,4.78-6.78,5.59-9.44,1.67-5.44,1-11.64-1.84-17.02-.44-.83-1.75-3.19-3.21-4.69.27-3.04-1.05-7.61-1.07-7.67-1.48-4.88-4.94-9.19-8.9-11.13-.92-2.69-3.87-5.85-3.91-5.88-1.11-1.15-4.82-4.21-7.96-5.16-1.07-2.71-3.9-5.34-3.94-5.37-3.91-3.61-9.84-5.76-15.85-5.76-.46,0-.92.01-1.37.04-2.41-2.18-4.93-3.75-7.68-4.78-2.59-.97-5.19-1.46-7.75-1.46-2.67,0-5.29.53-7.8,1.58-.24-.11-.48-.21-.72-.32-.54-.23-1.1-.43-1.65-.61-.56-.18-1.13-.35-1.7-.49-.57-.14-1.16-.26-1.74-.36-1.65-.29-3.33-.43-4.98-.43h0Z"/><path class="cls-5" d="M319.72,6.03c5.4-3.72,11.82-4.58,17.78-3.54.54.09,1.07.2,1.59.32.52.13,1.04.28,1.55.44.51.17,1.01.35,1.51.56.49.21.98.43,1.46.67,5-2.36,10.1-2.25,14.88-.46,2.95,1.1,5.41,2.81,7.66,4.97,5.81-.58,12.45,1.31,16.59,5.13,1.25,1.15,3.53,3.85,3.69,5.62.29.92.52,2.28.46,3.27.14.63.16,1.3-.02,1.95.17.7-.05,2.79-.43,3.46-.04.07-.05.08-.09.13-.53-.41-1.2-.73-1.83-.97-.73-.57-1.97-.78-2.88-.97.02-.06.04-.12.05-.18.21-1.36-1.44-4.36-2.16-5.37-3.24-4.48-8.12-6.33-13.58-6.83-.36-.74-.72-1.45-1.15-2.14-.87-.95-1.71-1.85-2.78-2.57-2.51-2.36-6.68-3.72-10.19-3.85-4.1-.15-7.88,1.3-11.15,4.18l-1.01-.55c.31-.54.88-1.32.86-1.94-.27.29-.51.61-.74.93-.22.33-.42.67-.6,1.02-4.79-1.07-10.76-1.04-15.36,1.89-2.03,1.29-3.35,3-4.04,5.31,0,.03-.02.06-.02.09l-1.69.85c-.27-.81-.52-1.6-.57-2.49-.1-1.93.7-3.35,1.92-4.86-.47-.37-.92-.68-1.47-.93-4.96-.7-10.61.25-15.01,3.47-1.8,1.32-3.27,2.97-4.58,4.79-.48-.07-.97-.07-1.45-.08-5.71.23-11.36,2.53-15.64,6.89-1.48,1.5-2.63,3.09-3.48,5.03l-.18-.21c-.25-.73-1.01-1.79-1.56-2.3,1.72-3.85,7.59-8.15,11.25-9.82,3.23-1.48,6.33-2.11,9.74-2.38,4.23-4.92,10.24-7.89,16.31-8.62.53-.06,1.07-.11,1.6-.14.53-.03,1.07-.04,1.6-.03.53,0,1.06.03,1.59.07.53.04,1.05.1,1.57.17Z"/><path class="cls-1" d="M364.8,12.11c6-.58,12.07.7,16.39,4.71,2.28,2.11,3.71,4.92,3.72,8.27,0,.78-.06,1.76-.39,2.51-.73-.57-1.97-.78-2.88-.97.02-.06.04-.12.05-.18.21-1.36-1.44-4.36-2.16-5.37-3.24-4.48-8.12-6.33-13.58-6.83-.36-.74-.72-1.45-1.15-2.14Z"/><path class="cls-1" d="M319.43,10.13c1.38-1.4,2.91-2.48,4.65-3.3,5.53-2.6,11.83-2.08,17.03-.11-.21.21-.41.44-.6.66-.27.29-.51.61-.74.93-.22.33-.42.67-.6,1.02-4.79-1.07-10.76-1.04-15.36,1.89-2.03,1.29-3.35,3-4.04,5.31,0,.03-.02.06-.02.09l-1.69.85c-.27-.81-.52-1.6-.57-2.49-.1-1.93.7-3.35,1.92-4.86Z"/><path class="cls-6" d="M276.07,26.78c.55.52,1.31,1.58,1.56,2.3-.65.26-1.3.51-1.96.75-.37,1.13-.68,2.21-.86,3.38-3.44,1.89-6.18,4.13-7.59,8.03-1,2.76-1.06,5.5-.38,8.17,2.31-1.8,4.97-2.7,7.7-3.21-.46.29-.93.54-1.39.83-.11.55-.99,1.22-1.42,1.63-4.73,4.46-8.43,8.91-7.65,15.58.28,2.41,1.05,4.66,2.36,6.6,1.15,1.71,2.68,2.63,4.15,3.97l-.05.2c.62.15,1.28.08,1.93.05,1.87-2.28,3.77-4.44,5.87-6.51-1.45,2.32-3.98,6.27-4.51,8.89,0,.02,0,.05,0,.07.02,1.33-.54,3.21-.66,4.67-.01.16-.02.31-.03.46,0,.16-.02.31-.02.46,0,.15,0,.31,0,.46,0,.15,0,.31,0,.46,0,.15,0,.31.02.46,0,.15.02.31.03.46.01.15.03.31.04.46.02.15.03.3.05.45.02.15.04.3.07.45.02.15.05.3.08.45.03.15.06.3.09.44.03.15.07.29.1.44.04.15.07.29.11.44.04.14.08.29.13.43.04.14.09.29.14.43.05.14.1.28.15.42.05.14.11.28.16.42.06.14.11.28.17.41.06.14.12.27.18.41.06.13.13.27.2.4.07.13.14.26.21.39.07.13.14.26.22.39.07.13.15.25.23.38.08.12.16.25.24.37.08.12.16.24.25.36.08.12.17.24.26.35.09.12.18.23.27.35s.18.23.28.34c.09.11.19.22.29.33.1.11.2.21.3.32.1.11.2.21.31.31.1.1.21.2.32.3,2.56,2.37,5.85,3.71,9.32,4.33.94,2.11,2.47,4.29,4.54,5.34.42.26.83.53,1.31.69.07-.13.13-.23.25-.32.35-.24.57-.52.75-.91.1-.21.2-.39.33-.58l.05-.08,1.53.63c.76.23,1.52.41,2.33.48,6.23.57,15.15-5.15,20.16-9.13.99-.57,6.47-4.95,7.27-5.82,1.87-1.18,3.64-2.52,5.49-3.74.71-.48,1.42-.93,2.15-1.37.73-.44,1.46-.85,2.21-1.24.75-.39,1.5-.77,2.27-1.12.76-.35,1.53-.68,2.31-.99.53-.21,1.07-.41,1.61-.6.54-.19,1.08-.37,1.63-.54.55-.17,1.09-.33,1.64-.48.55-.15,1.1-.28,1.65-.41.55-.13,1.11-.24,1.66-.35.55-.1,1.11-.2,1.67-.28.56-.08,1.11-.16,1.67-.22.56-.06,1.11-.11,1.67-.15,6.44-.47,13.57.72,19.78-2.25,1.01-.48,3.65-2.07,4.12-3.16.71.3,1.3.79,2.03,1.09.77-.71,1.42-1.92,1.85-2.85.71-1.54,1.79-4.93,1.28-6.4,1.9.26,2.75,1.1,5,.77,2.2-.32,4.14-1.58,5.6-3.38,2.78-3.44,4.78-10.1,4.53-14.27.04-.11.05-.11.06-.25.06-.88-1.53-3.19-2.19-3.76.01-.03.02-.07.03-.1.15-.71.64-.97.96-1.58.13-.25.06-.34,0-.58v.1s-.1.05-.1.05c-.75-.73-1.66-1.64-2.69-1.95l-.05-.14c-.68-.49-1.49-.92-2.31-1.15.38-.77.13-2.26-.05-3.03-.61-2.64-2.57-5.67-4.93-6.94.04-.05.06-.06.09-.13.38-.67.6-2.76.43-3.46.18-.65.16-1.32.02-1.95.06-1-.17-2.35-.46-3.27,2.32.1,6.53,3.18,8.12,4.82,1.01,1.05,3.7,4.52,3.62,5.97.16.04.31.08.46.14,3.9,1.71,7.01,5.98,8.26,10.09.46,1.51,1.49,6.43.78,7.84,1.24.74,2.94,3.55,3.64,4.87,2.39,4.52,3.34,10.17,1.7,15.5-.84,2.74-3.44,7.71-5.94,9.26.32.66.34,1.69.37,2.46.25,5.57-.79,10.52-4.59,15.1-3.46,4.17-7.86,6.56-12.93,7.26.05.85-1.8,3.46-2.39,4.25-4.09,5.36-9.83,7.93-15.98,9.07.18.31.23.63.29.99.14.89.25,1.81.46,2.68.27,1.12.67,2.22.82,3.38.08.62.08,1.26-.05,1.9-.28,1.33-1,2.49-2.1,3.32-1.34,1.01-3.02,1.39-4.56,1.19-5.44-.72-10.59-9.19-13.46-13.55-5.59-1.39-9.38-3.62-13.64-7.3-4.38,1.02-9.05,2.08-13.43,1.62-5.91-.63-9.52-3.47-12.79-8.14-3.55,1.91-6.98,3.63-10.79,4.82-7.64,2.39-15.99,2.54-22.66-1.26-5.44-3.1-8.53-8.02-9.85-14.32-4.63,1.29-10.01.55-13.88-1.75-4.64-2.76-7.67-7.56-8.72-13.04-1.16-6.03.36-11.46,3.73-16.88-.04-2,.39-4.14,1.05-6.09,1.57-4.7,4.6-8.76,8.87-11.27.22-1.36.74-2.78,1.35-4.05,1.89-3.96,5.29-7.43,9.03-9.57,1.57-.9,3.22-1.58,4.86-2.28Z"/><path class="cls-5" d="M294.52,103.64l1.53.63c-.45.37-.7,1.37-1.1,1.91-.43.06-1.41.31-1.75.11.33-.04.78-.02,1.07-.23-.37-.19-.75-.36-1.14-.53.07-.13.13-.23.25-.32.35-.24.57-.52.75-.91.1-.21.2-.39.33-.58l.05-.08Z"/><path class="cls-3" d="M356.59,116.82c3.68.7,8.48.71,12.29.04.3.43.57,2.37.47,2.94,0,.05-.04.13-.06.18-.75-.12-3.79.48-4.84.52-1.56.06-3.87-.34-5.19-.14-.97-1.08-1.75-2.39-2.67-3.54Z"/><path class="cls-3" d="M355.19,104.76c1.27,1.19,2.68,2.05,4.16,2.95-2.63,1.13-5.58,1.8-8.31,2.55-1.11.3-2.32.57-3.39,1.03-.9-.44-1.78-.92-2.63-1.45-.85-.53-1.67-1.1-2.47-1.71,4.25-.92,8.46-2.04,12.64-3.37Z"/><path class="cls-8" d="M359.25,120.36c1.32-.2,3.63.2,5.19.14,1.05-.04,4.09-.65,4.84-.52.02.02.04.03.06.05.44.51,1.16,4.12,1.07,4.88-.06.53-.29,1.06-.72,1.42-.72.61-1.71.86-2.57.78-3.26-.33-6.13-4.29-7.87-6.74Z"/><path class="cls-1" d="M263.05,45.45c-.02-2.12.65-4.24,1.65-6.18,2.37-4.57,6.35-7.67,10.96-9.44-.37,1.13-.68,2.21-.86,3.38-3.44,1.89-6.18,4.13-7.59,8.03-1,2.76-1.06,5.5-.38,8.17-.81.57-1.55,1.28-2.3,1.93-.84-1.9-1.39-3.73-1.49-5.89Z"/><path class="cls-3" d="M399.13,34.47c.21.08.39.18.56.32.52.42,1.85,1.49,1.89,2.19.33,1.9.38,3.95.39,5.9,0,2.26-.57,5.98.31,7.92,1.13,2.52,3.65,3.98,4.04,7,.21,1.64-.29,3.5-1.23,4.97-.07.11-.15.21-.24.3.03-.31-.24-.71-.39-.95-.94-1.49-2.47-2.19-4.19-2.45.85-1.18.83-4.6.8-5.99-.05-2.44-1.11-8.47-2.81-9.98.4-.41.58-1.18.72-1.71.53-1.9,1.07-5.92.15-7.52Z"/><path class="cls-8" d="M386.89,23.02c.64.14,1.25.54,1.8.86,2.59,1.49,4.86,3.5,6.33,6.17.97,1.76,2.5,5.94,1.95,8.06-.03.14-.03.12-.08.23.29.62-.03,2.2-.28,2.92-.04.12-.09.24-.14.36v.1s-.1.05-.1.05c-.75-.73-1.66-1.64-2.69-1.95l-.05-.14c-.68-.49-1.49-.92-2.31-1.15.38-.77.13-2.26-.05-3.03-.61-2.64-2.57-5.67-4.93-6.94.04-.05.06-.06.09-.13.38-.67.6-2.76.43-3.46.18-.65.16-1.32.02-1.95Z"/><path class="cls-3" d="M386.87,24.97c1.24.22,2.49,2.2,3.12,3.26,2.24,3.76,2.66,8.03,6.89,10.11.29.62-.03,2.2-.28,2.92-.04.12-.09.24-.14.36v.1s-.1.05-.1.05c-.75-.73-1.66-1.64-2.69-1.95l-.05-.14c-.68-.49-1.49-.92-2.31-1.15.38-.77.13-2.26-.05-3.03-.61-2.64-2.57-5.67-4.93-6.94.04-.05.06-.06.09-.13.38-.67.6-2.76.43-3.46Z"/><path class="cls-3" d="M367.58,99.33c4.46,2.16,9.05,3.52,14.13,3.89,1.62.12,3.42-.11,4.99.13.04.75-1.11,2.28-1.61,2.87-.12.15-.24.22-.4.3l-.09-.24c-.32-.19-.65-.41-1.01-.51-1.2-.32-2.56-.22-3.81-.25-1.58-.04-3.16-.12-4.71-.35-2.5-.37-4.86-1.27-7.36-1.58-1.49.87-2.98,1.7-4.54,2.41-.94.43-1.98.73-2.87,1.24-1.6-.63-3.51-1.55-4.89-2.58,4.71-1.51,7.83-2.68,12.17-5.34Z"/><path class="cls-3" d="M273.8,77.42s0,.05,0,.07c.02,1.33-.54,3.21-.66,4.67-.01.16-.02.31-.03.46,0,.16-.02.31-.02.46,0,.15,0,.31,0,.46,0,.15,0,.31,0,.46,0,.15,0,.31.02.46,0,.15.02.31.03.46.01.15.03.31.04.46.02.15.03.3.05.45.02.15.04.3.07.45.02.15.05.3.08.45.03.15.06.3.09.44.03.15.07.29.1.44.04.15.07.29.11.44.04.14.08.29.13.43.04.14.09.29.14.43.05.14.1.28.15.42.05.14.11.28.16.42.06.14.11.28.17.41.06.14.12.27.18.41.06.13.13.27.2.4.07.13.14.26.21.39.07.13.14.26.22.39.07.13.15.25.23.38.08.12.16.25.24.37.08.12.16.24.25.36.08.12.17.24.26.35.09.12.18.23.27.35s.18.23.28.34c.09.11.19.22.29.33.1.11.2.21.3.32.1.11.2.21.31.31.1.1.21.2.32.3,2.56,2.37,5.85,3.71,9.32,4.33.94,2.11,2.47,4.29,4.54,5.34.42.26.83.53,1.31.69.38.17.76.34,1.14.53-.29.2-.74.19-1.07.23-3.3.14-6.42-.28-9.42-1.42-4.82-1.82-8.6-5.37-10.43-10.31-1.88-5.07-1.88-11.8.46-17.14Z"/><path class="cls-3" d="M382.49,64.76c1.9.26,2.75,1.1,5,.77,2.2-.32,4.14-1.58,5.6-3.38,2.78-3.44,4.78-10.1,4.53-14.27.85.82,1.03,5.03,1.01,6.37-.08,4.98-2.01,10.3-5.55,14.13-2.7,2.92-6.71,5.72-10.56,6.03-1.12.09-2.12-.08-3.16-.4.77-.71,1.42-1.92,1.85-2.85.71-1.54,1.79-4.93,1.28-6.4Z"/><path class="cls-3" d="M249.52,71.66c.29,1.11.51,2.25.86,3.34,1,3.04,2.99,5.94,5.83,7.34,1.62.8,3.66,1.09,5.5.39,1.73-.66,3-2.03,3.86-3.69.41-.79.72-1.64,1.13-2.42,1.53.47,2.88.71,4.51.78-.09.24-.18.47-.27.71-.09.24-.17.48-.25.72-.08.24-.15.48-.23.72-.07.24-.14.48-.2.73-.06.24-.13.49-.18.73-.06.24-.11.49-.16.73-.05.25-.1.49-.14.74-.04.25-.08.49-.12.74-.04.25-.07.49-.09.74-.03.25-.05.49-.07.74-.02.25-.04.49-.05.74-.01.25-.02.49-.03.74,0,.25,0,.49,0,.74,0,.25,0,.49.02.73,0,.24.02.49.04.73.02.24.04.49.06.73-1.51.29-3.02.49-4.54.49-.13,0-.27,0-.4,0-.13,0-.27,0-.4-.01-.13,0-.27-.01-.4-.02-.13,0-.27-.02-.4-.03-.13-.01-.27-.03-.4-.04-.13-.02-.26-.04-.39-.06-.13-.02-.26-.04-.39-.07-.13-.02-.26-.05-.39-.08-.13-.03-.26-.06-.39-.09-.13-.03-.26-.06-.38-.1-.13-.03-.25-.07-.38-.11-.13-.04-.25-.08-.38-.12-.13-.04-.25-.08-.37-.13-.12-.04-.25-.09-.37-.14-.12-.05-.24-.1-.36-.15-.12-.05-.24-.1-.36-.15-.12-.05-.24-.11-.36-.16-.12-.06-.23-.11-.35-.17-.12-.06-.23-.12-.35-.18-.11-.06-.23-.13-.34-.19-.11-.07-.22-.13-.33-.2-.11-.07-.22-.14-.33-.21-.11-.07-.22-.14-.32-.22-.11-.07-.21-.15-.32-.23-.1-.08-.21-.16-.31-.24-.1-.08-.2-.16-.3-.24-.1-.08-.2-.17-.3-.25-.1-.09-.19-.17-.29-.26-.1-.09-.19-.18-.28-.27-.09-.09-.19-.18-.28-.28-.09-.09-.18-.19-.27-.28s-.18-.19-.26-.29c-2.9-3.31-4.77-8.22-4.33-12.95Z"/><path class="cls-3" d="M379.06,82.19c1.22.35,2.35,1.27,3.53,1.77,4.04,1.73,8.84,2.16,13.34,1,1.97-.51,7.35-2.67,8.48-4.36.06.09.12.17.15.28.18.49.13,1.16-.07,1.67-4.77,3.64-9.56,6.76-15.46,6.07-3.12-.36-6.26-2.14-9.35.25-.18.14-.33.29-.46.48-.19-.53-.51-.78-.97-1.06.32.41,1.41,2.38,1.41,2.86-.84.78-1.37,1.66-1.49,2.78-.16,1.56.47,2.89,1.41,3.96.46.53,3.18,2.58,3.19,2.63-3.14-.15-6.06-.63-8.99-1.63-1.26-.43-2.48-.97-3.74-1.4.56-.32,1.08-.87,1.55-1.32,2.43-2.31,4.47-4.98,5.91-8.02.63-1.33,1.97-4.67,1.54-5.96Z"/><path class="cls-3" d="M400.08,60.48c1.25.17,2.44.83,3.31,1.7.42.43.95,1.07.92,1.72-1.98,3.03-5.26,7.22-8.23,9.22-.98.66-5.09,2.53-4.89,3.47.08.36.48.55.78.68,2.94,1.32,7.55.3,10.63-.99.81-.34,1.63-.73,2.4-1.17.78-.45,1.82-1.36,2.63-1.58l-.03.24c-1.93,3.14-6.44,6.49-9.77,7.76-5.11,1.95-10.39,1.65-15.02-.52-1.21-.57-2.24-1.45-3.43-2-.02-.01-.05-.02-.07-.03.04-.1.05-.11.07-.23.11-.55.11-1.4-.17-1.85,2.53.35,4.83.09,7.32-.87,4.87-1.89,9.32-5.92,11.78-10.68.52-1.01,2.05-3.91,1.77-4.86Z"/><path class="cls-8" d="M249.52,71.66c-.1-2.83,1-5.85,2.4-8.39.97,1.8,2.17,2.97,4.07,3.69-1.29,2.11-1.47,4.26-1.72,6.57.95-3.39,2.31-6.02,5.18-8.29.16,3.72,1.29,7.2,4.07,9.52.95.79,2.01,1.4,3.17,1.85-.41.78-.72,1.63-1.13,2.42-.86,1.66-2.13,3.02-3.86,3.69-1.84.71-3.87.41-5.5-.39-2.84-1.4-4.83-4.3-5.83-7.34-.36-1.09-.57-2.23-.86-3.34Z"/><path class="cls-8" d="M360.3,107.26c.9-.5,1.94-.81,2.87-1.24,1.56-.71,3.05-1.55,4.54-2.41,2.5.31,4.86,1.21,7.36,1.58,1.55.23,3.13.31,4.71.35,1.25.03,2.61-.08,3.81.25.36.1.7.32,1.01.51l.09.24c-.14.74-1.75,1.94-2.38,2.44-6.56,5.2-15.9,6.07-23.41,5.33-3.91-.39-7.77-1.34-11.25-3,1.07-.46,2.28-.73,3.39-1.03,2.72-.75,5.68-1.42,8.31-2.55,4.83,2.43,10.69,3.01,16.18,1.26.67-.21,4.17-1.61,4.52-1.64.02,0,.04,0,.06,0l-.07-.09c.21-.07.42-.14.63-.23-.29-.02-.47.09-.74.2-.88.36-1.83.57-2.74.82-5.75,1.58-11.7,1.5-16.9-.77Z"/><path class="cls-8" d="M401.59,36.98c1.26.63,2.53,4.18,2.91,5.63.36,1.38.98,6.11.45,7.27.55.47,1.02,1.07,1.5,1.62,2.77,3.22,4.48,7.17,4.63,11.67.11,3.25-.85,7.49-3.12,10.11-.1.12-.19.18-.32.25-.81.22-1.85,1.13-2.63,1.58-.77.44-1.59.83-2.4,1.17-3.08,1.29-7.69,2.31-10.63.99-.3-.13-.7-.33-.78-.68-.2-.94,3.91-2.81,4.89-3.47,2.98-2.01,6.26-6.19,8.23-9.22.11.08.2.17.29.29.91,1.33.78,4.12.35,5.72.42-.47.53-1.73.59-2.32.11-1.33.16-3.54-.7-4.52.09-.1.17-.2.24-.3.95-1.46,1.45-3.32,1.23-4.97-.39-3.02-2.91-4.47-4.04-7-.87-1.94-.3-5.66-.31-7.92,0-1.96-.05-4.01-.39-5.9Z"/><path class="cls-8" d="M404.5,82.55c.59,1.19-.18,4.63-.64,6.05-.04.12-.08.24-.12.36-.04.12-.09.24-.13.36-.05.12-.09.24-.14.35-.05.12-.1.24-.15.35-.05.12-.1.23-.16.35-.05.12-.11.23-.16.35-.06.11-.11.23-.17.34-.06.11-.12.23-.18.34-.06.11-.12.22-.19.33s-.13.22-.19.33c-.07.11-.13.22-.2.33-.07.11-.14.22-.21.32-.07.11-.14.21-.22.32s-.15.21-.22.31c-.08.1-.15.21-.23.31-.08.1-.16.2-.24.3-.08.1-.16.2-.24.3-.08.1-.17.2-.25.29-.08.1-.17.19-.26.29-.09.09-.17.19-.26.28-.09.09-.18.18-.27.27-.09.09-.18.18-.27.27-.09.09-.19.18-.28.26-.09.09-.19.17-.29.26-.1.08-.19.17-.29.25-.1.08-.2.16-.3.24-.1.08-.2.16-.3.23-.1.08-.2.15-.31.23-.1.07-.21.15-.31.22-.1.07-.21.14-.31.21-.11.07-.21.14-.32.21-.11.07-.22.13-.32.2-4.34,2.58-8.93,2.78-13.59,2.56-.02-.04-2.73-2.1-3.19-2.63-.94-1.08-1.57-2.41-1.41-3.96.12-1.13.66-2,1.49-2.78,0-.48-1.09-2.45-1.41-2.86.45.28.77.53.97,1.06.14-.19.28-.34.46-.48,3.09-2.39,6.22-.61,9.35-.25,5.89.68,10.69-2.43,15.46-6.07Z"/><path class="cls-2" d="M378.27,88.29c.45.28.77.53.97,1.06.64.54,1.19,1.19,1.89,1.65,2.61,1.74,6.43,2.54,9.67,2.1,2.99-.41,5.52-1.98,7.52-4.43.2-.25.4-.51.59-.77l.14-.04c-.61,1.73-3.35,4.04-4.84,4.87-3.22,1.78-6.75,2.02-10,1.05-1.29-.38-2.35-.87-3.39-1.71-.36-.29-.74-.73-1.15-.93,0-.48-1.09-2.45-1.41-2.86Z"/><path class="cls-5" d="M260.57,45.74c.71-.23,1.74-.21,2.48-.29.1,2.16.64,3.99,1.49,5.89.75-.65,1.5-1.36,2.3-1.93,2.31-1.8,4.97-2.7,7.7-3.21-.46.29-.93.54-1.39.83-.11.55-.99,1.22-1.42,1.63-4.73,4.46-8.43,8.91-7.65,15.58.28,2.41,1.05,4.66,2.36,6.6,1.15,1.71,2.68,2.63,4.15,3.97l-.05.2c.62.15,1.28.08,1.93.05-.42.78-.85,1.55-1.23,2.34-1.63-.07-2.98-.31-4.51-.78-1.16-.45-2.22-1.06-3.17-1.85-2.78-2.31-3.92-5.8-4.07-9.52-2.87,2.27-4.23,4.9-5.18,8.29.25-2.32.43-4.46,1.72-6.57.26-.31.63-.66.74-1.05-.41-.33-.79-.71-1.12-1.13-1.59-1.99-2.34-4.57-1.96-7.28.66-4.6,3.39-8.73,6.92-11.76Z"/><path class="cls-1" d="M270.52,75c-.7-.09-1.37-.23-2.03-.45-.09-.03-.17-.06-.26-.08-.09-.03-.17-.06-.26-.09-.09-.03-.17-.06-.25-.1-.08-.03-.17-.07-.25-.1-.08-.04-.17-.07-.25-.11-.08-.04-.16-.08-.24-.12-.08-.04-.16-.08-.24-.12-.08-.04-.16-.09-.24-.13-.08-.04-.16-.09-.23-.14-.08-.05-.15-.09-.23-.14-.08-.05-.15-.1-.23-.15-.07-.05-.15-.1-.22-.16-.07-.05-.15-.11-.22-.16-.07-.06-.14-.11-.21-.17-.07-.06-.14-.11-.21-.17-.07-.06-.14-.12-.2-.18-.07-.06-.13-.12-.2-.19-.07-.06-.13-.13-.19-.19-.06-.06-.13-.13-.19-.2-.06-.07-.12-.13-.18-.2-.06-.07-.12-.14-.18-.21-.06-.07-.12-.14-.17-.21-.06-.07-.11-.14-.17-.22-.05-.07-.11-.15-.16-.22-.05-.07-.1-.15-.15-.23-.05-.08-.1-.15-.15-.23-.05-.08-.1-.16-.14-.23-.05-.08-.09-.16-.14-.24-.04-.08-.09-.16-.13-.24-.04-.08-.08-.16-.12-.25-.04-.08-.08-.17-.12-.25-.04-.08-.08-.17-.11-.25-1.41-3.41-1.05-7.66.41-11.27,1.95-4.84,5.99-8.31,10.49-10.57-.11.55-.99,1.22-1.42,1.63-4.73,4.46-8.43,8.91-7.65,15.58.28,2.41,1.05,4.66,2.36,6.6,1.15,1.71,2.68,2.63,4.15,3.97l-.05.2Z"/><path class="cls-8" d="M260.57,45.74c.12,2.1.93,4.41,2.51,5.72.27.22.56.41.87.58-2.93,3.69-4.27,7.45-4.59,11.98-1.03.53-1.71,1.24-2.63,1.89-.41-.33-.79-.71-1.12-1.13-1.59-1.99-2.34-4.57-1.96-7.28.66-4.6,3.39-8.73,6.92-11.76Z"/><path class="cls-3" d="M355.63,80.87c6.13-.26,12.32.34,18.3-2.31.76-.34,2.05-.95,2.62-1.6.03-.03.05-.06.07-.1.75,1.38,0,5.94-.49,7.58-1.62,5.5-5.89,10.23-10.66,13.24-2.04,1.29-4.28,2.2-6.5,3.01-4.13,1.51-8.39,2.56-12.6,3.68-5.21,1.38-10.65,2.95-15.93,3.47-2.02.2-4.08.14-6.01-.3-3.95-.9-6.86-3.11-8.95-6.55,1.59-1.14,3.2-2.27,4.73-3.5,2.89,3.11,7.51,4.35,11.81,4.24,6.35-.15,13.09-3.12,17.9-7.84.11-.11.22-.22.33-.34,4.53.31,9.77-2.39,13.39-5.4,1.11-.93,4.76-4.54,5.04-5.82-.86.78-1.8,2.07-2.77,2.99-4.41,4.2-9.39,6.91-15.17,7.68,1.88-2.54,3.33-4.87,4.14-7.9.13-.47.35-1.13.32-1.59,0-.02,0-.04-.01-.06-.6,2.1-1.22,3.89-2.62,5.66-4.25,5.36-10.99,9.32-17.41,10.35-5.07.82-9.87.13-13.73-2.97,11.14-9.09,20.01-15.17,34.19-15.61Z"/><path class="cls-8" d="M298.37,17.46c1.31-1.82,2.78-3.48,4.58-4.79,4.41-3.22,10.05-4.17,15.01-3.47.55.25,1,.57,1.47.93-1.22,1.51-2.02,2.92-1.92,4.86.05.89.29,1.68.57,2.49l1.69-.85s.02-.06.02-.09c.68-2.31,2-4.02,4.04-5.31,4.6-2.92,10.57-2.96,15.36-1.89.18-.35.38-.7.6-1.02.22-.33.47-.64.74-.93.03.61-.54,1.4-.86,1.94l1.01.55c3.27-2.87,7.05-4.33,11.15-4.18,3.51.13,7.68,1.48,10.19,3.85,1.08.72,1.91,1.62,2.78,2.57.43.69.79,1.41,1.15,2.14,5.45.49,10.34,2.35,13.58,6.83.73,1.01,2.37,4.01,2.16,5.37-.01.06-.03.12-.05.18.92.19,2.16.39,2.88.97.63.24,1.3.56,1.83.97,2.36,1.26,4.32,4.29,4.93,6.94.18.77.43,2.26.05,3.03.82.23,1.63.67,2.31,1.15l.05.14c1.03.31,1.93,1.22,2.69,1.95l.09-.05v-.1c.08.24.15.32.01.58-.32.61-.82.87-.96,1.58,0,.03-.02.07-.03.1.67.57,2.25,2.88,2.19,3.76,0,.14-.02.13-.06.25.25,4.16-1.75,10.83-4.53,14.27-1.46,1.8-3.4,3.06-5.6,3.38-2.25.33-3.1-.51-5-.77.52,1.47-.57,4.86-1.28,6.4-.43.94-1.07,2.14-1.85,2.85-.73-.3-1.32-.78-2.03-1.09-.47,1.09-3.11,2.68-4.12,3.16-6.22,2.96-13.35,1.78-19.78,2.25-.56.04-1.11.09-1.67.15-.56.06-1.11.13-1.67.22-.56.08-1.11.18-1.67.28-.55.1-1.11.22-1.66.35-.55.13-1.1.26-1.65.41-.55.15-1.1.31-1.64.48-.55.17-1.09.35-1.63.54-.54.19-1.08.39-1.61.6-.78.31-1.55.64-2.31.99-.76.35-1.52.72-2.27,1.12-.75.39-1.48.81-2.21,1.24-.73.44-1.44.89-2.15,1.37-1.84,1.22-3.62,2.56-5.49,3.74-.8.87-6.28,5.25-7.27,5.82-5.02,3.98-13.93,9.7-20.16,9.13-.81-.07-1.57-.25-2.33-.48l-1.53-.63-.05.08c-.13.19-.23.37-.33.58-.18.39-.4.67-.75.91-.12.09-.18.19-.25.32-.48-.16-.89-.43-1.31-.69-2.08-1.05-3.6-3.23-4.54-5.34-3.47-.62-6.77-1.96-9.32-4.33-.11-.1-.21-.2-.32-.3-.1-.1-.21-.21-.31-.31-.1-.11-.2-.21-.3-.32-.1-.11-.19-.22-.29-.33-.09-.11-.19-.22-.28-.34s-.18-.23-.27-.35c-.09-.12-.17-.24-.26-.35-.08-.12-.17-.24-.25-.36-.08-.12-.16-.25-.24-.37-.08-.12-.15-.25-.23-.38-.07-.13-.15-.26-.22-.39-.07-.13-.14-.26-.21-.39-.07-.13-.13-.26-.2-.4-.06-.13-.12-.27-.18-.41-.06-.14-.12-.27-.17-.41-.06-.14-.11-.28-.16-.42-.05-.14-.1-.28-.15-.42-.05-.14-.09-.28-.14-.43-.04-.14-.09-.29-.13-.43-.04-.14-.08-.29-.11-.44-.04-.15-.07-.29-.1-.44-.03-.15-.06-.3-.09-.44-.03-.15-.05-.3-.08-.45-.02-.15-.05-.3-.07-.45-.02-.15-.04-.3-.05-.45-.02-.15-.03-.3-.04-.46-.01-.15-.02-.31-.03-.46,0-.15-.01-.31-.02-.46s0-.31,0-.46c0-.15,0-.31,0-.46,0-.15.01-.31.02-.46,0-.15.02-.31.03-.46.12-1.45.68-3.34.66-4.67,0-.02,0-.05,0-.07.53-2.61,3.06-6.57,4.51-8.89-2.1,2.07-4,4.23-5.87,6.51-.65.03-1.31.1-1.93-.05l.05-.2c-1.47-1.34-2.99-2.26-4.15-3.97-1.31-1.94-2.08-4.19-2.36-6.6-.78-6.67,2.92-11.12,7.65-15.58.43-.4,1.31-1.08,1.42-1.63.46-.29.93-.54,1.39-.83-2.72.51-5.39,1.4-7.7,3.21-.68-2.67-.61-5.41.38-8.17,1.41-3.9,4.15-6.13,7.59-8.03.17-1.16.48-2.25.86-3.38.66-.24,1.31-.5,1.96-.75l.18.21c.84-1.94,2-3.53,3.48-5.03,4.29-4.36,9.94-6.65,15.64-6.89.48.01.97.01,1.45.08Z"/><path class="cls-5" d="M288.2,87.41c-.87,4.15-.88,8.43,1.39,11.85.07.1.14.19.21.29.99,1.47,2.17,2.48,3.62,3.46l1.1.63-.05.08c-.13.19-.23.37-.33.58-.18.39-.4.67-.75.91-.12.09-.18.19-.25.32-.48-.16-.89-.43-1.31-.69-2.08-1.05-3.6-3.23-4.54-5.34-1.48-4.35-.84-7.64.91-12.09Z"/><path class="cls-5" d="M291.83,104.84c.49-.63,1.02-1.27,1.59-1.83l1.1.63-.05.08c-.13.19-.23.37-.33.58-.18.39-.4.67-.75.91-.12.09-.18.19-.25.32-.48-.16-.89-.43-1.31-.69Z"/><path class="cls-5" d="M300.11,89.87c2.28,2.77,5,4.58,8.61,5.2,4.22.58,8.59-.89,12.52-2.9,1.48-.76,2.94-1.66,4.45-2.32l.12-.05c-.8.87-6.28,5.25-7.27,5.82-.9.18-1.8.78-2.69,1.07-3.45,1.12-6.38.83-9.61-.2-2.99-1.35-4.99-3.49-6.14-6.63Z"/><path class="cls-5" d="M297.64,73.27c.8.39,1.66,1.42,2.35,2.02.39.34.8.67,1.22.97.42.31.85.6,1.3.87.45.27.9.52,1.37.76.47.23.94.45,1.43.64,8.88,3.45,13.06-4.76,20.29-4.14,1.72.15,4.41,1.49,5.44,2.89h-.17c-1.7-.76-3.71-1.4-5.66-1.17-1.91.23-3.6,1.27-5.29,2.24-4.34,2.46-8.65,4.3-13.35,2.96-3.9-1.11-7.21-4.36-8.91-8.03Z"/><path class="cls-3" d="M306.25,96.5c3.22,1.02,6.15,1.31,9.61.2.89-.29,1.79-.88,2.69-1.07-5.02,3.98-13.93,9.7-20.16,9.13-.81-.07-1.57-.25-2.33-.48l-1.53-.63-1.1-.63c-1.45-.98-2.63-1.99-3.62-3.46,5.61.82,11.17-.04,16.45-3.05Z"/><path class="cls-1" d="M340.67,9.87c3.27-2.87,7.05-4.33,11.15-4.18,3.51.13,7.68,1.48,10.19,3.85,1.96,3.23,2.71,6.28,2.35,10.28l-.92-.26c-.97-2.53-2.16-4.56-4.13-6.36-3.08-2.8-7.45-4.03-11.75-3.56-3.67.4-7.24,1.97-9.83,4.94-.09-.29.03-.59.09-.9l-.08-.12c.04-1.45.78-2.91,1.44-4.21.18-.35.38-.7.6-1.02.22-.33.47-.64.74-.93.03.61-.54,1.4-.86,1.94l1.01.55Z"/><path class="cls-5" d="M339.18,9.34c.18-.35.38-.7.6-1.02.22-.33.47-.64.74-.93.03.61-.54,1.4-.86,1.94l1.01.55c-1.13,1.17-2.15,2.32-2.85,3.8l-.08-.12c.04-1.45.78-2.91,1.44-4.21Z"/><path class="cls-3" d="M379.56,62.19c.43.27.64,1.31.72,1.83.41,2.42-.23,5.21-1.65,7.36-.34.51-.8,1.19-1.3,1.54-.47,1.09-3.11,2.68-4.12,3.16-6.22,2.96-13.35,1.78-19.78,2.25-.56.04-1.11.09-1.67.15-.56.06-1.11.13-1.67.22-.56.08-1.11.18-1.67.28-.55.1-1.11.22-1.66.35-.55.13-1.1.26-1.65.41-.55.15-1.1.31-1.64.48-.55.17-1.09.35-1.63.54-.54.19-1.08.39-1.61.6-.78.31-1.55.64-2.31.99-.76.35-1.52.72-2.27,1.12-.75.39-1.48.81-2.21,1.24-.73.44-1.44.89-2.15,1.37-1.84,1.22-3.62,2.56-5.49,3.74l-.12.05c-1.52.66-2.97,1.57-4.45,2.32-3.93,2-8.3,3.47-12.52,2.9,1.72-.84,3.47-1.6,5.15-2.51,2.29-1.23,4.54-2.67,6.73-4.1,2.45-1.61,4.76-3.42,7.18-5.08,6.76-4.64,13.83-8.01,21.63-9.54,6.26-1.22,12.41-.7,18.65-1.56,3.48-.48,7.36-1.66,9.8-4.64.64-.77,1.55-2.13,1.5-3.13.02-.03.03-.07.05-.1.3-.66.36-1.58.15-2.23Z"/><path class="cls-5" d="M337.88,26.74c.29-1.04.65-2.05,1.08-3.05,1.71-3.91,5.01-6.99,8.77-8.75-3.04,2.38-5.58,5.55-6.9,9.2-1.65,4.58-1.06,8.53.78,12.56,3.27-.43,5.62.14,8.32,1.69.25-.75.52-1.46.98-2.12,1.48-2.14,3.85-2.83,6.13-3.37-1.43.77-2.81,1.62-3.93,2.85-.42.46-.87.98-1.16,1.53-.19.36-.94,2.11-1.13,2.27-.08.07-.18.09-.26.14-4.77.24-8.95.72-12.71,4.61-.99,1.03-1.41,2.3-2.25,3.24,1.18.83,2.14,1.78,3.02,2.95,4.54-1.27,8.8-.68,12.59,1.6.04.02.07.05.11.07,1.18-2.85,3.32-4.89,6.02-6.24,1.29-.64,2.63-1.04,4.01-1.36-.68-1.85-.91-3.66-.04-5.66.86-1.95,2.51-3.45,4.25-4.58-1.6,1.83-2.88,3.99-2.87,6.41,0,2.02,1.01,3.83,2.4,5.08,1.5,1.34,3.31,1.94,5.33,2.17.51.06,1.1.03,1.59.14-2.92.64-6.04.59-8.44-1.07-.55-.38-1.01-.84-1.43-1.36-3.07.98-5.87,2.45-7.66,5.43-.63,1.04-.95,2.07-1.21,3.23,2.39,2.14,3.86,4.72,3.92,8.18v.15c2.52-1.04,4.7-1.2,7.09-.17,1.48.64,2.68,1.65,3.82,2.76-2.68-1.3-5.75-2.45-8.91-1.28-1.77.65-3.15,2.07-4.05,3.76-.35.67-.61,1.38-.88,2.08.07-.71.22-1.5.21-2.2-.25-.43-.22-1.22-.3-1.75-.48-3.16-1.5-5.64-4.17-7.35-2.42-1.55-5.57-1.8-8.48-1.01-2.41.65-4.43,1.82-5.87,4.02.19-1.38.34-2.79.22-4.15-.18-2.17-1-4.1-2.68-5.36-.1-.07-.19-.14-.29-.21-.1-.07-.2-.13-.3-.19-.1-.06-.21-.12-.31-.17-.11-.06-.21-.11-.32-.16-.11-.05-.22-.1-.33-.14-.11-.04-.23-.08-.34-.12-.11-.04-.23-.07-.35-.1-.12-.03-.23-.06-.35-.09-.12-.03-.24-.05-.36-.07-.12-.02-.24-.04-.36-.05-.12-.01-.24-.02-.37-.03-.12,0-.25-.01-.37-.01-.12,0-.25,0-.37,0s-.25.02-.37.03c-.12.01-.25.03-.37.05-.12.02-.25.04-.37.07-2.1.43-3.67,1.6-4.98,3.38.68,2.45.7,4.57-.02,7.15,1.17-.34,2.32-.54,3.51-.54,3.46,0,6.51,1.34,8.73,3.86,2.5,2.83,2.99,5.92,2.64,9.81v-.08c-.65-3.9-2.08-7.08-5.41-9.18-2.91-1.82-7.31-2.43-10.73-.71-.8.4-1.55,1.03-2.3,1.53-.68.46-1.43.84-2.15,1.2-1.85.93-3.74,1.48-5.69,2.01,3.16-1.69,6.75-3.94,8.47-7.31,1.15-2.26,1.11-4.79.43-7.02-1.16-3.82-4.64-6.28-8.18-7.52-.91-.32-2.1-.42-2.94-.83-.03-.02-.07-.03-.1-.05,4.47.23,8.49.73,11.67,3.95.67-.86,1.49-1.63,2.37-2.27,2.61-1.9,5.56-2.57,8.52-2.14.15-.6.33-1.19.57-1.76,1.36-3.28,3.96-5.43,7.02-6.92-1.22-2.72-1.7-5.17-1.64-8.28-.82-.94-1.77-1.79-2.88-2.38-2.91-1.57-6.1-1.49-9.37-.41,1.64-1.04,3.33-1.78,5.2-2.03,2.93-.39,5.41.57,7.51,2.38Z"/><path class="cls-3" d="M338.61,50.5c4.54-1.27,8.8-.68,12.59,1.6.04.02.07.05.11.07l-.29,1.04c-.49-.18-.98-.35-1.48-.5-3.62-1.11-6.17-.61-9.7,1.31-.22-1.29-.64-2.39-1.23-3.51Z"/><path class="cls-1" d="M333.91,46.75c.3-.77.58-1.56.98-2.29.08-.15.16-.29.25-.43.09-.14.18-.28.27-.42.09-.14.19-.27.29-.41.1-.13.2-.27.31-.4.1-.13.21-.26.32-.38.11-.12.22-.25.34-.37.12-.12.23-.24.36-.35.12-.11.24-.22.37-.33.13-.11.25-.21.38-.32.13-.1.26-.2.4-.3.13-.1.27-.19.41-.28s.28-.17.42-.26c.14-.08.29-.16.43-.24.14-.08.29-.15.44-.22.15-.07.3-.13.45-.19.15-.06.3-.12.45-.17,3.05-1.1,7.07-1.08,9.8.29-4.77.24-8.95.72-12.71,4.61-.99,1.03-1.41,2.3-2.25,3.24l-1.69-.81Z"/><path class="cls-1" d="M321.87,52.51c1.55-2.03,3.52-3.49,5.95-3.95.15-.03.29-.05.44-.07.15-.02.29-.03.44-.05.15-.01.29-.02.44-.02.15,0,.29,0,.44,0,.15,0,.29,0,.44.02.15.01.29.02.43.04.14.02.29.04.43.06.14.03.28.05.42.09.14.03.28.07.42.11.14.04.27.08.41.13.14.05.27.1.4.15.13.05.26.11.39.17.13.06.26.12.38.19.13.07.25.14.37.21.12.07.24.15.36.23.12.08.23.16.34.25.11.09.22.18.33.27.11.09.21.19.32.29.1.1.2.2.3.3.1.1.19.21.28.32.09.11.18.22.27.34.09.11.17.23.25.35.08.12.16.24.23.36.07.12.14.25.21.38.07.13.13.26.19.39.06.13.12.27.17.4.05.14.1.27.15.41.05.14.09.28.13.42.04.14.08.28.11.43s.06.29.09.44c.03.15.05.29.07.44.02.15.03.3.04.45.05.75,0,1.53-.12,2.29,2.53-2.26,5.36-3.65,8.61-3.57,2.7.07,5.38,1.07,7.05,3.14,1.83,2.27,2.11,4.96,1.71,7.96-.08.6-.18,1.19-.3,1.79-.25-.43-.22-1.22-.3-1.75-.48-3.16-1.5-5.64-4.17-7.35-2.42-1.55-5.57-1.8-8.48-1.01-2.41.65-4.43,1.82-5.87,4.02.19-1.38.34-2.79.22-4.15-.18-2.17-1-4.1-2.68-5.36-.1-.07-.19-.14-.29-.21-.1-.07-.2-.13-.3-.19-.1-.06-.21-.12-.31-.17-.11-.06-.21-.11-.32-.16-.11-.05-.22-.1-.33-.14-.11-.04-.23-.08-.34-.12-.11-.04-.23-.07-.35-.1-.12-.03-.23-.06-.35-.09-.12-.03-.24-.05-.36-.07-.12-.02-.24-.04-.36-.05-.12-.01-.24-.02-.37-.03-.12,0-.25-.01-.37-.01-.12,0-.25,0-.37,0s-.25.02-.37.03c-.12.01-.25.03-.37.05-.12.02-.25.04-.37.07-2.1.43-3.67,1.6-4.98,3.38-.26-.58-.51-1.17-.79-1.73Z"/><path class="cls-5" d="M317.97,9.19c.55.25,1,.57,1.47.93-1.22,1.51-2.02,2.92-1.92,4.86.05.89.29,1.68.57,2.49l1.69-.85c4.18-2.08,8.27-1.9,12.31-.55h-1.78c.48.37,1.09.53,1.66.71-5.39,1.41-11.09,3.33-14.48,8.5-1.41,2.16-1.96,4.41-2.15,6.86,3.83-.01,7.64.94,10.17,3.83.5.57.96,1.18,1.38,1.82l-.02.12-.18-.06s-.05.01-.08.01c-1.2.19-3.44-.53-4.71-.69-5.43-.69-11.74.83-15.7,5.54-2.04,2.43-2.89,5.3-2.77,8.3.13,3.19,1.71,6.5,3.56,8.88.45.58,1.49,1.57,1.66,2.27l-.21.06c-.38.07-.75.12-1.12.12-3.12.05-5.46-1.27-7.45-3.45-1.08.93-2.21,1.78-3.23,2.79-3.03,2.99-5.26,6.97-5.83,11.11-.5,3.57.2,7.06,1.61,10.15.27.58,1.07,1.81,1.08,2.43.53.41,1.25.75,1.87,1,4.08,1.68,8.22.45,12.3-1.37-.6.59-1.23,1.17-1.89,1.68-2.67,2.03-5.79,2.98-8.92,2.59-3.5-.44-6.49-2.51-8.41-5.36-2.8-4.17-3.26-8.88-2.2-14.07-2.36-.39-4.48-1.24-6.33-2.68-.08-.07-.17-.13-.25-.2-.08-.07-.16-.14-.24-.21-.08-.07-.16-.14-.24-.22-.08-.07-.16-.15-.23-.22s-.15-.15-.23-.23c-.07-.08-.15-.16-.22-.23-.07-.08-.14-.16-.21-.24-.07-.08-.14-.16-.21-.25-.07-.08-.14-.17-.2-.25-.07-.08-.13-.17-.19-.26-.06-.09-.13-.17-.19-.26-.06-.09-.12-.18-.18-.27-.06-.09-.12-.18-.17-.27-.06-.09-.11-.18-.17-.28-.05-.09-.11-.19-.16-.28-.05-.1-.1-.19-.15-.29-.05-.1-.1-.19-.15-.29-.05-.1-.09-.2-.14-.3-.04-.1-.09-.2-.13-.3-.04-.1-.08-.2-.12-.3-.04-.1-.08-.2-.12-.31-.04-.1-.07-.21-.11-.31-.03-.1-.07-.21-.1-.31-.03-.11-.06-.21-.09-.32-.03-.11-.06-.21-.09-.32-.03-.11-.05-.22-.08-.32-.02-.11-.05-.22-.07-.33-.02-.11-.04-.22-.06-.33-.02-.11-.04-.22-.05-.33-.02-.11-.03-.22-.05-.33-.01-.11-.03-.22-.04-.33-.01-.11-.02-.22-.03-.34-.49-6.41,2.45-12.52,6.46-17.69-.45.14-.9.26-1.37.3-1.35.11-2.6-.4-3.52-1.3-1.61-1.58-2.06-3.93-2.01-6.24.17-1.16.48-2.25.86-3.38.66-.24,1.31-.5,1.96-.75l.18.21c-.81,2.49-1.09,5.28.06,7.53.82,1.6,2.21,2.4,3.92,2.8.15.03.3.07.45.1l1.31-1.41c.76-.73,1.61-1.41,2.47-2.01,4.59-3.22,8.76-3.64,13.78-2.82-.86.03-1.9-.01-2.73.28-.04.03-.08.07-.11.1-.49.41-1.27.71-1.83,1.02-.93.52-1.84,1.07-2.73,1.66-5.46,3.63-9.96,9.04-11.1,15.59-.71,4.06.08,8.08,2.37,11.2.98,1.34,2.2,2.35,3.54,3.3,2.27-5.22,5.61-8.94,10.53-11.71-.02-.07-.05-.13-.07-.2-.03-.11-.07-.22-.1-.33-.03-.11-.06-.22-.09-.34-.03-.11-.06-.22-.08-.34-.03-.11-.05-.23-.07-.34-.02-.11-.04-.23-.06-.34-.02-.11-.04-.23-.06-.35-.02-.12-.03-.23-.05-.35-.01-.12-.03-.23-.04-.35-.01-.12-.02-.23-.03-.35,0-.12-.02-.24-.02-.35,0-.12-.01-.24-.01-.35,0-.12,0-.24,0-.36,0-.12,0-.24,0-.36,0-.12,0-.24.01-.36,0-.12.01-.24.02-.36,0-.12.02-.24.03-.36.01-.12.02-.24.04-.36.01-.12.03-.24.05-.36.02-.12.04-.24.06-.36.02-.12.04-.24.06-.36.02-.12.05-.24.07-.36.03-.12.05-.24.08-.35.03-.12.06-.24.09-.35.03-.12.06-.23.1-.35.03-.12.07-.23.11-.35.04-.12.07-.23.11-.35.04-.12.08-.23.12-.35.04-.11.09-.23.13-.34.04-.11.09-.23.14-.34.05-.11.1-.23.15-.34.05-.11.1-.22.15-.33.05-.11.11-.22.16-.33,2.46-5.05,6.7-8.37,11.68-10.43-.25-2.29.33-4.59-.12-6.89-.6-3.07-2.57-5.04-5.08-6.51.46.11.92.22,1.37.35,2.5.7,4.32,2.19,5.42,4.56,1.14-2.25,2.49-4.01,4.3-5.76-.81-2.35-1.19-4.06-.38-6.64.59-1.14,1.22-2.09,2.07-3.06Z"/><path class="cls-1" d="M312.77,32.45c-.02-.93-.03-1.86.07-2.8.37-3.5,2.29-6.9,4.93-9.32,3.75-3.44,7.87-4.33,12.51-4.25.48.37,1.09.52,1.66.71-5.39,1.41-11.09,3.33-14.48,8.5-1.41,2.16-1.96,4.41-2.15,6.86-.85.07-1.7.2-2.55.3Z"/><path class="cls-1" d="M298.75,57.24c.33.59.72,1.12,1.12,1.66-1.08.93-2.21,1.78-3.23,2.79-3.03,2.99-5.26,6.97-5.83,11.11-.5,3.57.2,7.06,1.61,10.15.27.58,1.07,1.81,1.08,2.43-1.85-1.31-3.24-3.1-4.17-5.22-1.61-3.67-1.58-8.21-.05-12.21,1.77-4.66,5.14-8.4,9.47-10.71Z"/><path class="cls-1" d="M287.19,66.64l-.16.44c-.15.13-.17.17-.36.2-1.53.23-4.28-1.54-5.39-2.46-2.5-2.09-3.66-5.12-3.8-8.51-.2-5.05,1.76-10.35,5.11-14.39.12-.14.23-.27.35-.41.12-.14.24-.27.36-.4.12-.13.25-.26.37-.39.12-.13.25-.26.38-.39.13-.13.26-.25.39-.38.13-.12.26-.25.39-.37.13-.12.27-.24.4-.36.14-.12.27-.23.41-.35.14-.11.28-.23.42-.34.14-.11.28-.22.42-.33.14-.11.29-.21.43-.32s.29-.21.44-.31c.15-.1.29-.2.44-.3.15-.1.3-.19.45-.29.15-.09.3-.19.46-.28.15-.09.31-.18.46-.27.15-.09.31-.17.47-.26.16-.08.31-.17.47-.24.16-.08.32-.16.48-.23.16-.08.32-.15.48-.22.16-.07.32-.14.48-.21.16-.07.32-.13.49-.2s.33-.13.49-.19c.16-.06.33-.12.49-.17.17-.06.33-.11.5-.16.17-.05.33-.1.5-.15.17-.05.33-.09.5-.14.17-.04.34-.09.5-.13.17-.04.34-.08.51-.11.17-.04.34-.07.51-.1.17-.03.34-.06.51-.09.17-.03.34-.05.51-.08-.04.03-.08.07-.11.1-.49.41-1.27.71-1.83,1.02-.93.52-1.84,1.07-2.73,1.66-5.46,3.63-9.96,9.04-11.1,15.59-.71,4.06.08,8.08,2.37,11.2.98,1.34,2.2,2.35,3.54,3.3Z"/><path class="cls-1" d="M308.44,62.23c-.97-.26-1.84-.6-2.69-1.11-2.98-1.81-5.35-5.04-5.99-8.64-.59-3.33.29-6.93,2.22-9.91,2.26-3.49,6-6.13,9.84-7.16,5.39-1.44,10.47-.31,14.85,2.45-.03,0-.05.01-.08.01-1.2.19-3.44-.53-4.71-.69-5.43-.69-11.74.83-15.7,5.54-2.04,2.43-2.89,5.3-2.77,8.3.13,3.19,1.71,6.5,3.56,8.88.45.58,1.49,1.57,1.66,2.27l-.21.06Z"/><path class="cls-5" d="M362.01,9.54c1.08.72,1.91,1.62,2.78,2.57.43.69.79,1.41,1.15,2.14,5.45.49,10.34,2.35,13.58,6.83.73,1.01,2.37,4.01,2.16,5.37-.01.06-.03.12-.05.18.92.19,2.16.39,2.88.97.63.24,1.3.56,1.83.97,2.36,1.26,4.32,4.29,4.93,6.94.18.77.43,2.26.05,3.03.82.23,1.63.67,2.31,1.15l.05.14c1.03.31,1.93,1.22,2.69,1.95l.09-.05v-.1c.08.24.15.32.01.58-.32.61-.82.87-.96,1.58,0,.03-.02.07-.03.1.67.57,2.25,2.88,2.19,3.76,0,.14-.02.13-.06.25.25,4.16-1.75,10.83-4.53,14.27-1.46,1.8-3.4,3.06-5.6,3.38-2.25.33-3.1-.51-5-.77.52,1.47-.57,4.86-1.28,6.4-.43.94-1.07,2.14-1.85,2.85-.73-.3-1.32-.78-2.03-1.09.5-.36.96-1.03,1.3-1.54,1.42-2.15,2.06-4.95,1.65-7.36-.09-.52-.29-1.56-.72-1.83.21.64.16,1.56-.15,2.23-.02.03-.03.07-.05.1l-.09.04c-.65-1.64-1.24-2.91-2.39-4.22-2.7-3.08-6.5-3.95-10.58-3.92-.55.2-1.1.48-1.65.72,2.49-2.08,5.25-3.44,8.35-3.2.3.02.97.26,1.23.14-.02-.08-.06-.15-.05-.23.02-.12,1.22-2.46,1.37-2.9.09-.28.17-.56.24-.84.07-.28.13-.57.18-.85.05-.28.09-.57.11-.86.03-.29.04-.57.05-.86.03-3.33-1.51-5.62-3.56-7.83-.75-.81-1.5-1.6-1.98-2.63-.43-.94-.53-1.95-.65-2.99-.34-2.9-1.23-5.23-3.31-7.17-3.31-3.07-8.28-4.16-12.9-3.26-1.4.27-2.92.98-4.29,1.09-.02,0-.05,0-.07,0-.4.24-.78.56-1.16.83,1.08-1.27,2.32-2.46,3.68-3.4,3.5-2.43,7.65-3.31,11.55-2.64l.92.26c.36-4-.39-7.05-2.35-10.28Z"/><path class="cls-1" d="M380.53,46.4c.88.28,1.62.71,2.55.89,1.72.34,4.14-.1,5.72-1.16l.08.19c-.63,1.1-2.23,2.06-3.37,2.45-2.02.69-3.48.13-5.25-.6.02-.02.03-.05.05-.07.29-.52.34-1.16.22-1.7Z"/><path class="cls-1" d="M366.31,56.42c2.96-1.11,5.9-1.63,8.69-.29,1.98.95,3.98,3.18,4.57,5.4.07.25.07.41,0,.66.21.64.16,1.56-.15,2.23-.02.03-.03.07-.05.1l-.09.04c-.65-1.64-1.24-2.91-2.39-4.22-2.7-3.08-6.5-3.95-10.58-3.92Z"/><path class="cls-1" d="M349.37,24.76c4.13-2.64,8.19-4.26,12.81-3.26.1.02.21.05.31.07.1.03.21.05.31.08.1.03.21.06.31.09.1.03.2.06.31.1.1.03.2.07.3.11.1.04.2.07.3.11.1.04.2.08.3.12.1.04.19.08.29.13.1.04.19.09.29.14.09.05.19.09.28.14.09.05.19.1.28.15.09.05.18.1.27.16.09.05.18.11.27.17.09.06.18.11.27.17.09.06.17.12.26.18.09.06.17.12.25.19.08.06.17.13.25.19.08.07.16.13.24.2.08.07.16.14.24.21.08.07.16.14.23.21.08.07.15.15.23.22.08.07.15.15.22.23.07.08.15.15.22.23s.14.16.21.24c.07.08.14.16.2.25.07.08.13.17.2.25.06.08.13.17.19.26.06.09.12.17.18.26.06.09.12.18.18.27.06.09.11.18.17.27.06.09.11.18.16.28.05.09.1.19.16.28,1,1.85,2.17,6.02,1.58,8.18-.04.13-.09.26-.16.38,2,.3,4,2.2,5.05,3.83,1.46,2.28,2.01,5.05,1.36,7.89-.41,1.79-1.91,5.08-3.49,6.23-.07.05-.09.06-.17.1-.02-.08-.06-.15-.05-.23.02-.12,1.22-2.46,1.37-2.9.09-.28.17-.56.24-.84.07-.28.13-.57.18-.85.05-.28.09-.57.11-.86.03-.29.04-.57.05-.86.03-3.33-1.51-5.62-3.56-7.83-.75-.81-1.5-1.6-1.98-2.63-.43-.94-.53-1.95-.65-2.99-.34-2.9-1.23-5.23-3.31-7.17-3.31-3.07-8.28-4.16-12.9-3.26-1.4.27-2.92.98-4.29,1.09-.02,0-.05,0-.07,0Z"/><path class="cls-8" d="M392.57,41.32c.37-.47.63-1.2,1.12-1.5,1.03.31,1.93,1.22,2.69,1.95l.09-.05v-.1c.08.24.15.32.01.58-.32.61-.82.87-.96,1.58,0,.03-.02.07-.03.1.67.57,2.25,2.88,2.19,3.76,0,.14-.02.13-.06.25.25,4.16-1.75,10.83-4.53,14.27-1.46,1.8-3.4,3.06-5.6,3.38-2.25.33-3.1-.51-5-.77l.02-.06c.04-.15.08-.31.08-.46,0-.92-.24-2.74-.88-3.38.37,0,.74,0,1.1-.02,2.44-.09,4.69-1.08,6.51-2.93.66-.67,1.78-1.8,1.82-2.72-.05.11-.06.15-.12.25-.84,1.5-3.18,2.79-4.69,3.32-2.27.81-5,.64-6.61-1.07-.85-.9-1.65-2.21-2.78-2.75-.03-.01-.05-.02-.08-.03.21-.16.41-.36.57-.57,1.07-1.36,2.92-4.54,2.81-6.17,1.77.73,3.23,1.29,5.25.6,1.14-.39,2.74-1.35,3.37-2.45l-.08-.19c.46-.27.79-.5.99-1.02-.62.42-1.31.52-2,.6.04-.03.1-.07.13-.11.29-.3.75-.95.75-1.36.14.01.19,0,.33-.05.26-.3.46-.6.64-.94.37-.69,1.16-2.27.95-3,.74.2,1.38.61,1.97,1.08Z"/><path class="cls-6" d="M392.57,41.32c.37-.47.63-1.2,1.12-1.5,1.03.31,1.93,1.22,2.69,1.95l.09-.05v-.1c.08.24.15.32.01.58-.32.61-.82.87-.96,1.58,0,.03-.02.07-.03.1-.39-.93-2.08-2.06-2.92-2.56Z"/><path class="cls-8" d="M365.94,14.25c5.45.49,10.34,2.35,13.58,6.83.73,1.01,2.37,4.01,2.16,5.37-.01.06-.03.12-.05.18.92.19,2.16.39,2.88.97.63.24,1.3.56,1.83.97,2.36,1.26,4.32,4.29,4.93,6.94.18.77.43,2.26.05,3.03.82.23,1.63.67,2.31,1.15l.05.14c-.49.3-.75,1.03-1.12,1.5-.59-.47-1.22-.88-1.97-1.08.2.74-.59,2.32-.95,3-.19.34-.39.64-.64.94-.14.05-.19.07-.33.05,0,.41-.46,1.06-.75,1.36-.04.04-.09.08-.13.11-.49.27-1.4.18-1.94.18-2.32.25-3.77-1.13-5.45-2.34.01-.03.02-.05.03-.08.18-.74-.56-2.56-.89-3.27-.88-1.9-3.34-5.24-5.38-5.83.29-.7.11-1.72,0-2.41-.83-5.02-3.22-8.71-7.31-11.31,0-2.3-.19-4.27-.91-6.4Z"/><path class="cls-1" d="M377.59,26.82c1.37-.35,2.69-.32,4.05-.19.92.19,2.16.39,2.88.97.63.24,1.3.56,1.83.97,2.36,1.26,4.32,4.29,4.93,6.94.18.77.43,2.26.05,3.03.82.23,1.63.67,2.31,1.15l.05.14c-.49.3-.75,1.03-1.12,1.5-.59-.47-1.22-.88-1.97-1.08.2.74-.59,2.32-.95,3-.19.34-.39.64-.64.94-.14.05-.19.07-.33.05,0,.41-.46,1.06-.75,1.36-.04.04-.09.08-.13.11-.49.27-1.4.18-1.94.18.41-.6.67-1.5.83-2.19,1.2-5.22-.85-11.57-5.04-14.27-1.3-.83-2.76-1.47-4.23-1.95-.31-.1-.73-.15-.91-.43.25-.19.77-.19,1.08-.23Z"/><path class="cls-5" d="M377.59,26.82c1.37-.35,2.69-.32,4.05-.19.92.19,2.16.39,2.88.97.63.24,1.3.56,1.83.97,2.36,1.26,4.32,4.29,4.93,6.94.18.77.43,2.26.05,3.03.82.23,1.63.67,2.31,1.15l.05.14c-.49.3-.75,1.03-1.12,1.5-.59-.47-1.22-.88-1.97-1.08.2.74-.59,2.32-.95,3-.19.34-.39.64-.64.94-.14.05-.19.07-.33.05.52-.67.72-1.97.84-2.77.53-3.64.07-7.22-2.11-9.99-2.4-3.05-5.91-4.45-9.82-4.66Z"/><path class="cls-8" d="M298.37,17.46c1.31-1.82,2.78-3.48,4.58-4.79,4.41-3.22,10.05-4.17,15.01-3.47-.85.97-1.48,1.92-2.07,3.06-.81,2.58-.43,4.29.38,6.64-1.82,1.75-3.16,3.51-4.3,5.76-1.1-2.37-2.92-3.86-5.42-4.56-.45-.12-.91-.24-1.37-.35,2.51,1.47,4.48,3.44,5.08,6.51.45,2.3-.13,4.6.12,6.89-4.97,2.06-9.21,5.38-11.68,10.43-.05.11-.11.22-.16.33-.05.11-.1.22-.15.33-.05.11-.1.22-.15.34-.05.11-.09.23-.14.34-.04.11-.09.23-.13.34-.04.11-.08.23-.12.35-.04.12-.08.23-.11.35-.04.12-.07.23-.11.35-.03.12-.07.23-.1.35-.03.12-.06.23-.09.35-.03.12-.05.24-.08.35-.03.12-.05.24-.07.36-.02.12-.04.24-.06.36-.02.12-.04.24-.06.36-.02.12-.03.24-.05.36-.01.12-.03.24-.04.36-.01.12-.02.24-.03.36,0,.12-.02.24-.02.36,0,.12,0,.24-.01.36,0,.12,0,.24,0,.36,0,.12,0,.24,0,.36,0,.12,0,.24.01.35,0,.12.01.24.02.35,0,.12.02.23.03.35.01.12.02.23.04.35.01.12.03.23.05.35.02.12.04.23.06.35.02.11.04.23.06.34.02.11.05.23.07.34.03.11.05.23.08.34.03.11.06.22.09.34.03.11.06.22.1.33.02.07.04.13.07.2-4.92,2.77-8.25,6.5-10.53,11.71-1.34-.95-2.55-1.96-3.54-3.3-2.28-3.11-3.07-7.14-2.37-11.2,1.14-6.55,5.65-11.96,11.1-15.59.89-.59,1.8-1.15,2.73-1.66.56-.31,1.34-.61,1.83-1.02.04-.03.08-.07.11-.1.83-.29,1.88-.25,2.73-.28-5.02-.82-9.19-.4-13.78,2.82-.86.6-1.71,1.28-2.47,2.01l-1.31,1.41c-.15-.03-.3-.07-.45-.1-1.71-.4-3.1-1.2-3.92-2.8-1.15-2.25-.87-5.04-.06-7.53.84-1.94,2-3.53,3.48-5.03,4.29-4.36,9.94-6.65,15.64-6.89.48.01.97.01,1.45.08Z"/><path class="cls-5" d="M296.92,17.38c.48.01.97.01,1.45.08-.95,2.16-1.57,4.53-.78,6.69.57,1.56,1.82,2.59,3.32,3.16.26.1.53.18.8.25l.27.14c-.55.27-1.57-.03-2.14-.16-1.69-.39-3.19-1.34-4-2.91-.83-1.6-.68-3.29-.13-5.07.36-.75.77-1.46,1.2-2.18Z"/><path class="cls-1" d="M298.37,17.46c1.31-1.82,2.78-3.48,4.58-4.79,4.41-3.22,10.05-4.17,15.01-3.47-.85.97-1.48,1.92-2.07,3.06-4.85.55-11.32,2.33-14.83,6.42-.99,1.15-1.66,2.5-1.62,3.98.06,2.3,2.24,4.23,2.27,4.91-.27-.07-.54-.15-.8-.25-1.5-.57-2.75-1.6-3.32-3.16-.79-2.16-.18-4.53.78-6.69Z"/><path class="cls-1" d="M277.8,29.29c.84-1.94,2-3.53,3.48-5.03,4.29-4.36,9.94-6.65,15.64-6.89-.43.72-.84,1.43-1.2,2.18-4.16.76-8.26,3.1-11,6.64-1.78,2.31-2.79,5.27-2.55,8.06.12,1.43.55,2.93,1.36,4.07l-1.31,1.41c-.15-.03-.3-.07-.45-.1-1.71-.4-3.1-1.2-3.92-2.8-1.15-2.25-.87-5.04-.06-7.53Z"/></g></svg>