<?xml version="1.0" encoding="UTF-8"?><svg id="Ebene_2" xmlns="http://www.w3.org/2000/svg" viewBox="0 0 290.93 297.43"><defs><style>.cls-1{fill:#b3b3b3;}.cls-1,.cls-2,.cls-3,.cls-4,.cls-5{stroke-width:0px;}.cls-2{fill:#666;}.cls-3{fill:#000;}.cls-4{fill:#fff;}.cls-5{fill:#e6e6e6;}</style></defs><g id="Ebene_1-2"><path class="cls-5" d="M17,72l24.22-5.14c11.46-2.4,18.26,1.41,20.38,11.43.49,2.31.74,4.93.74,7.86l.03,16.19c-.02,7.47-2.37,12.97-7.04,16.48,3.42,1.11,5.59,3.81,6.5,8.12.33,1.58.5,3.37.48,5.39l.04,16.24c-.02,15.78-7.36,25.25-22.03,28.4l-23.33,4.95v-109.93ZM34.52,132.03v28.66s5.19-1.1,5.19-1.1c3.43-.73,5.15-3.16,5.15-7.3l-.04-16.24c0-.69-.06-1.34-.19-1.94-.39-1.82-1.42-2.88-3.09-3.19-.58-.13-1.79,0-3.65.39l-3.36.71ZM34.48,85.81l.04,28.65,3.36-.71c1.89-.4,3.11-.77,3.66-1.11,2.2-1.38,3.3-3.57,3.33-6.58l-.03-16.19c.01-.81-.05-1.53-.18-2.16-.55-2.59-2.21-3.59-4.98-3.01l-5.2,1.1Z"/><path class="cls-5" d="M74.42,72.99l22.96-4.87c11.74-2.46,18.59.92,20.55,10.13.39,1.86.58,3.96.57,6.3v14.27c0,8.75-3.82,15.24-11.45,19.46l16.87,40.95-19.07,4.05-11.97-39.08-.95.2v41.62s-17.5,3.71-17.5,3.71v-96.75ZM91.95,84.7l-.03,25.21,2.1-.45c1.89-.4,3.12-.75,3.67-1.05,2.22-1.28,3.32-3.23,3.31-5.86v-14.27c0-.66-.06-1.25-.17-1.78-.5-2.35-2.15-3.22-4.95-2.63l-3.94.84Z"/><path class="cls-5" d="M176.56,113.36l5,33.64-17.65,3.75-2.87-19.49-12.87,2.73-2.96,20.72-17.6,3.74,4.96-35.59,10.69-64.48,22.7-4.82,10.61,59.79ZM158.72,116.26l-4.16-28.38-4.25,30.17,8.41-1.78Z"/><path class="cls-5" d="M190.75,48.3l17.5-3.71v96.75s-17.49,3.71-17.49,3.71V48.3Z"/><path class="cls-5" d="M222.17,41.63l17.29-3.67,11.68,45.18v-47.66s16.38-3.48,16.38-3.48v96.75s-17.28,3.67-17.28,3.67l-11.15-43.98v46.34s-16.91,3.59-16.91,3.59V41.63Z"/><path class="cls-5" d="M18.14,211.79c0-15.82,7.56-25.33,22.66-28.53,12.47-2.65,19.8,1.18,21.98,11.48.46,2.17.69,4.65.7,7.43l.02,15.59-17.5,3.71-.02-15.59c.01-.81-.05-1.53-.18-2.16-.54-2.52-2.19-3.51-4.96-2.95l-.11.02c-3.4.72-5.1,3.15-5.1,7.29v9.78c-.02.48.03.96.13,1.45.86,4.03,5.29,8.19,13.3,12.49,7.71,4.07,12.33,9.72,13.86,16.93.39,1.82.57,3.72.55,5.7l-.02,13.62c0,15.85-7.55,25.38-22.65,28.58-12.48,2.61-19.81-1.23-21.99-11.53-.46-2.17-.69-4.65-.7-7.43l-.02-15.59,17.5-3.71.02,15.59c-.01.81.05,1.53.18,2.16.54,2.56,2.21,3.54,5.02,2.94,3.43-.73,5.15-3.16,5.15-7.3l.02-12.3c0-.55-.07-1.1-.19-1.66-.91-4.31-5.34-8.6-13.28-12.88-7.63-4.05-12.23-9.74-13.78-17.06-.4-1.89-.6-3.88-.61-5.97v-10.1Z"/><path class="cls-5" d="M117.23,181.92l.03,15.42-13.92,2.96-.03,81.33-17.5,3.71.03-81.33-13.92,2.96-.03-15.42,45.34-9.63Z"/><path class="cls-5" d="M170.92,232.57l5,33.64-17.65,3.75-2.87-19.49-12.87,2.73-2.96,20.72-17.6,3.74,4.96-35.59,10.69-64.48,22.7-4.82,10.61,59.79ZM153.08,235.47l-4.16-28.38-4.25,30.17,8.41-1.78Z"/><path class="cls-5" d="M229.13,235.75c-.01,13.91-7.58,22.49-22.7,25.74-12.71,2.7-20.08-.68-22.08-10.14-.38-1.79-.56-3.78-.56-5.98v-57.98c0-13.91,7.56-22.47,22.65-25.68,12.75-2.71,20.12.65,22.12,10.07.38,1.79.56,3.78.56,5.98v13.73s-17.49,3.71-17.49,3.71v-13.73c0-.66-.05-1.23-.15-1.73-.5-2.35-2.15-3.24-4.96-2.68l-.11.02c-3.4.72-5.11,2.92-5.14,6.58v57.98c0,.63.04,1.2.16,1.73.5,2.35,2.17,3.22,5,2.62,3.47-.74,5.2-2.92,5.2-6.54v-13.73s17.49-3.71,17.49-3.71v13.73Z"/><path class="cls-5" d="M270.85,197.68l20.07,44.11-18.7,3.97-13.52-33.15v36.02s-17.48,3.71-17.48,3.71v-96.75s17.49-3.71,17.49-3.71v36.02s13.5-38.88,13.5-38.88l18.7-3.97-20.07,52.63Z"/><path class="cls-1" d="M12,62l24.22-5.14c11.46-2.4,18.26,1.41,20.38,11.43.49,2.31.74,4.93.74,7.86l.03,16.19c-.02,7.47-2.37,12.97-7.04,16.48,3.42,1.11,5.59,3.81,6.5,8.12.33,1.58.5,3.37.48,5.39l.04,16.24c-.02,15.78-7.36,25.25-22.03,28.4l-23.33,4.95V62ZM29.52,122.03v28.66s5.19-1.1,5.19-1.1c3.43-.73,5.15-3.16,5.15-7.3l-.04-16.24c0-.69-.06-1.34-.19-1.94-.39-1.82-1.42-2.88-3.09-3.19-.58-.13-1.79,0-3.65.39l-3.36.71ZM29.48,75.81l.04,28.65,3.36-.71c1.89-.4,3.11-.77,3.66-1.11,2.2-1.38,3.3-3.57,3.33-6.58l-.03-16.19c.01-.81-.05-1.53-.18-2.16-.55-2.59-2.21-3.59-4.98-3.01l-5.2,1.1Z"/><path class="cls-1" d="M69.42,62.99l22.96-4.87c11.74-2.46,18.59.92,20.55,10.13.39,1.86.58,3.96.57,6.3v14.27c0,8.75-3.82,15.24-11.45,19.46l16.87,40.95-19.07,4.05-11.97-39.08-.95.2v41.62s-17.5,3.71-17.5,3.71V62.99ZM86.95,74.7l-.03,25.21,2.1-.45c1.89-.4,3.12-.75,3.67-1.05,2.22-1.28,3.32-3.23,3.31-5.86v-14.27c0-.66-.06-1.25-.17-1.78-.5-2.35-2.15-3.22-4.95-2.63l-3.94.84Z"/><path class="cls-1" d="M171.56,103.36l5,33.64-17.65,3.75-2.87-19.49-12.87,2.73-2.96,20.72-17.6,3.74,4.96-35.59,10.69-64.48,22.7-4.82,10.61,59.79ZM153.72,106.26l-4.16-28.38-4.25,30.17,8.41-1.78Z"/><path class="cls-1" d="M185.75,38.3l17.5-3.71v96.75s-17.49,3.71-17.49,3.71V38.3Z"/><path class="cls-1" d="M217.17,31.63l17.29-3.67,11.68,45.18V25.48s16.38-3.48,16.38-3.48v96.75s-17.28,3.67-17.28,3.67l-11.15-43.98v46.34s-16.91,3.59-16.91,3.59V31.63Z"/><path class="cls-1" d="M13.14,201.79c0-15.82,7.56-25.33,22.66-28.53,12.47-2.65,19.8,1.18,21.98,11.48.46,2.17.69,4.65.7,7.43l.02,15.59-17.5,3.71-.02-15.59c.01-.81-.05-1.53-.18-2.16-.54-2.52-2.19-3.51-4.96-2.95l-.11.02c-3.4.72-5.1,3.15-5.1,7.29v9.78c-.02.48.03.96.13,1.45.86,4.03,5.29,8.19,13.3,12.49,7.71,4.07,12.33,9.72,13.86,16.93.39,1.82.57,3.72.55,5.7l-.02,13.62c0,15.85-7.55,25.38-22.65,28.58-12.48,2.61-19.81-1.23-21.99-11.53-.46-2.17-.69-4.65-.7-7.43l-.02-15.59,17.5-3.71.02,15.59c-.01.81.05,1.53.18,2.16.54,2.56,2.21,3.54,5.02,2.94,3.43-.73,5.15-3.16,5.15-7.3l.02-12.3c0-.55-.07-1.1-.19-1.66-.91-4.31-5.34-8.6-13.28-12.88-7.63-4.05-12.23-9.74-13.78-17.06-.4-1.89-.6-3.88-.61-5.97v-10.1Z"/><path class="cls-1" d="M112.23,171.92l.03,15.42-13.92,2.96-.03,81.33-17.5,3.71.03-81.33-13.92,2.96-.03-15.42,45.34-9.63Z"/><path class="cls-1" d="M165.92,222.57l5,33.64-17.65,3.75-2.87-19.49-12.87,2.73-2.96,20.72-17.6,3.74,4.96-35.59,10.69-64.48,22.7-4.82,10.61,59.79ZM148.08,225.47l-4.16-28.38-4.25,30.17,8.41-1.78Z"/><path class="cls-1" d="M224.13,225.75c-.01,13.91-7.58,22.49-22.7,25.74-12.71,2.7-20.08-.68-22.08-10.14-.38-1.79-.56-3.78-.56-5.98v-57.98c0-13.91,7.56-22.47,22.65-25.68,12.75-2.71,20.12.65,22.12,10.07.38,1.79.56,3.78.56,5.98v13.73s-17.49,3.71-17.49,3.71v-13.73c0-.66-.05-1.23-.15-1.73-.5-2.35-2.15-3.24-4.96-2.68l-.11.02c-3.4.72-5.11,2.92-5.14,6.58v57.98c0,.63.04,1.2.16,1.73.5,2.35,2.17,3.22,5,2.62,3.47-.74,5.2-2.92,5.2-6.54v-13.73s17.49-3.71,17.49-3.71v13.73Z"/><path class="cls-1" d="M265.85,187.68l20.07,44.11-18.7,3.97-13.52-33.15v36.02s-17.48,3.71-17.48,3.71v-96.75s17.49-3.71,17.49-3.71v36.02s13.5-38.88,13.5-38.88l18.7-3.97-20.07,52.63Z"/><path class="cls-2" d="M7,52l24.22-5.14c11.46-2.4,18.26,1.41,20.38,11.43.49,2.31.74,4.93.74,7.86l.03,16.19c-.02,7.47-2.37,12.97-7.04,16.48,3.42,1.11,5.59,3.81,6.5,8.12.33,1.58.5,3.37.48,5.39l.04,16.24c-.02,15.78-7.36,25.25-22.03,28.4l-23.33,4.95V52ZM24.52,112.03v28.66s5.19-1.1,5.19-1.1c3.43-.73,5.15-3.16,5.15-7.3l-.04-16.24c0-.69-.06-1.34-.19-1.94-.39-1.82-1.42-2.88-3.09-3.19-.58-.13-1.79,0-3.65.39l-3.36.71ZM24.48,65.81l.04,28.65,3.36-.71c1.89-.4,3.11-.77,3.66-1.11,2.2-1.38,3.3-3.57,3.33-6.58l-.03-16.19c.01-.81-.05-1.53-.18-2.16-.55-2.59-2.21-3.59-4.98-3.01l-5.2,1.1Z"/><path class="cls-2" d="M64.42,52.99l22.96-4.87c11.74-2.46,18.59.92,20.55,10.13.39,1.86.58,3.96.57,6.3v14.27c0,8.75-3.82,15.24-11.45,19.46l16.87,40.95-19.07,4.05-11.97-39.08-.95.2v41.62s-17.5,3.71-17.5,3.71V52.99ZM81.95,64.7l-.03,25.21,2.1-.45c1.89-.4,3.12-.75,3.67-1.05,2.22-1.28,3.32-3.23,3.31-5.86v-14.27c0-.66-.06-1.25-.17-1.78-.5-2.35-2.15-3.22-4.95-2.63l-3.94.84Z"/><path class="cls-2" d="M166.56,93.35l5,33.64-17.65,3.75-2.87-19.49-12.87,2.73-2.96,20.72-17.6,3.74,4.96-35.59,10.69-64.48,22.7-4.82,10.61,59.79ZM148.72,96.26l-4.16-28.38-4.25,30.17,8.41-1.78Z"/><path class="cls-2" d="M180.75,28.3l17.5-3.71v96.75s-17.49,3.71-17.49,3.71V28.3Z"/><path class="cls-2" d="M212.17,21.63l17.29-3.67,11.68,45.18V15.48s16.38-3.48,16.38-3.48v96.75s-17.28,3.67-17.28,3.67l-11.15-43.98v46.34s-16.91,3.59-16.91,3.59V21.63Z"/><path class="cls-2" d="M8.14,191.79c0-15.82,7.56-25.33,22.66-28.53,12.47-2.65,19.8,1.18,21.98,11.48.46,2.17.69,4.65.7,7.43l.02,15.59-17.5,3.71-.02-15.59c.01-.81-.05-1.53-.18-2.16-.54-2.52-2.19-3.51-4.96-2.95l-.11.02c-3.4.72-5.1,3.15-5.1,7.29v9.78c-.02.48.03.96.13,1.45.86,4.03,5.29,8.19,13.3,12.49,7.71,4.07,12.33,9.72,13.86,16.93.39,1.82.57,3.72.55,5.7l-.02,13.62c0,15.85-7.55,25.38-22.65,28.58-12.48,2.61-19.81-1.23-21.99-11.53-.46-2.17-.69-4.65-.7-7.43l-.02-15.59,17.5-3.71.02,15.59c-.01.81.05,1.53.18,2.16.54,2.56,2.21,3.54,5.02,2.94,3.43-.73,5.15-3.16,5.15-7.3l.02-12.3c0-.55-.07-1.1-.19-1.66-.91-4.31-5.34-8.6-13.28-12.88-7.63-4.05-12.23-9.74-13.78-17.06-.4-1.89-.6-3.88-.61-5.97v-10.1Z"/><path class="cls-2" d="M107.23,161.92l.03,15.42-13.92,2.96-.03,81.33-17.5,3.71.03-81.33-13.92,2.96-.03-15.42,45.34-9.63Z"/><path class="cls-2" d="M160.92,212.57l5,33.64-17.65,3.75-2.87-19.49-12.87,2.73-2.96,20.72-17.6,3.74,4.96-35.59,10.69-64.48,22.7-4.82,10.61,59.79ZM143.08,215.47l-4.16-28.38-4.25,30.17,8.41-1.78Z"/><path class="cls-2" d="M219.13,215.75c-.01,13.91-7.58,22.49-22.7,25.74-12.71,2.7-20.08-.68-22.08-10.14-.38-1.79-.56-3.78-.56-5.98v-57.98c0-13.91,7.56-22.47,22.65-25.68,12.75-2.71,20.12.65,22.12,10.07.38,1.79.56,3.78.56,5.98v13.73s-17.49,3.71-17.49,3.71v-13.73c0-.66-.05-1.23-.15-1.73-.5-2.35-2.15-3.24-4.96-2.68l-.11.02c-3.4.72-5.11,2.92-5.14,6.58v57.98c0,.63.04,1.2.16,1.73.5,2.35,2.17,3.22,5,2.62,3.47-.74,5.2-2.92,5.2-6.54v-13.73s17.49-3.71,17.49-3.71v13.73Z"/><path class="cls-2" d="M260.85,177.68l20.07,44.11-18.7,3.97-13.52-33.15v36.02s-17.48,3.71-17.48,3.71v-96.75s17.49-3.71,17.49-3.71v36.02s13.5-38.88,13.5-38.88l18.7-3.97-20.07,52.63Z"/><path class="cls-3" d="M2,152.93c-.23,0-.45-.08-.63-.22-.23-.19-.37-.48-.37-.78V42c0-.47.33-.88.79-.98l24.22-5.14c2.27-.47,4.4-.72,6.32-.72,8.3,0,13.42,4.35,15.25,12.92.5,2.37.76,5.08.76,8.07l.03,16.19c-.02,7.05-2.08,12.49-6.13,16.2,2.86,1.48,4.73,4.23,5.57,8.2.35,1.64.52,3.52.51,5.6l.04,16.24c-.02,16.25-7.7,26.13-22.82,29.38l-23.33,4.95c-.07.01-.14.02-.21.02ZM20.51,129.46l3.99-.85c2.97-.63,4.36-2.64,4.36-6.32l-.04-16.24c0-.62-.06-1.21-.17-1.73-.3-1.42-1.03-2.18-2.29-2.41-.08-.02-.18-.04-.38-.04-.6,0-1.57.14-2.88.42l-2.57.55v26.62ZM20.52,83.23l2.16-.46c2.33-.49,3.1-.83,3.35-.98,1.89-1.19,2.83-3.07,2.85-5.73l-.03-16.18c.01-.75-.04-1.4-.16-1.95-.45-2.11-1.61-2.38-2.58-2.38-.36,0-.77.05-1.21.14l-4.41.94.04,26.61Z"/><path class="cls-4" d="M32.34,36.17c7.8,0,12.55,4.04,14.27,12.13.49,2.31.74,4.93.74,7.86l.03,16.19c-.02,7.47-2.37,12.97-7.04,16.48,3.42,1.11,5.59,3.81,6.5,8.12.33,1.58.5,3.37.48,5.39l.04,16.24c-.02,15.78-7.36,25.25-22.03,28.4l-23.33,4.95V42l24.22-5.14c2.21-.46,4.25-.69,6.12-.69M19.52,84.46l3.36-.71c1.89-.4,3.11-.77,3.66-1.11,2.2-1.38,3.3-3.57,3.32-6.58l-.03-16.19c.01-.81-.05-1.53-.18-2.16-.45-2.11-1.63-3.17-3.56-3.17-.44,0-.91.05-1.42.16l-5.2,1.1.04,28.65M19.51,130.69l5.2-1.1c3.43-.73,5.15-3.16,5.15-7.3l-.04-16.24c0-.69-.06-1.34-.19-1.94-.39-1.82-1.42-2.88-3.09-3.19-.15-.03-.33-.05-.56-.05-.67,0-1.7.15-3.09.44l-3.36.71v28.66M32.34,34.17h0c-1.99,0-4.19.25-6.53.74L1.58,40.05c-.92.2-1.58,1.01-1.58,1.96v109.93c0,.6.27,1.17.74,1.55.36.29.8.45,1.26.45.14,0,.28-.01.42-.04l23.33-4.95c15.65-3.36,23.6-13.57,23.61-30.35l-.04-16.25c.01-2.13-.17-4.09-.53-5.8-.79-3.73-2.44-6.47-4.93-8.18,3.64-3.85,5.49-9.22,5.51-16l-.03-16.2c0-3.05-.26-5.84-.78-8.27-1.9-8.97-7.51-13.71-16.22-13.71h0ZM21.48,57.43l3.61-.77c.37-.08.71-.12,1-.12.72,0,1.29.12,1.6,1.58.1.48.15,1.06.14,1.71l.03,16.22c-.02,2.31-.78,3.87-2.39,4.88-.03.02-.59.33-3.01.84l-.95.2-.04-24.56h0ZM21.52,103.65l1.78-.38c1.63-.35,2.37-.4,2.67-.4.06,0,.1,0,.15,0,.03,0,.03,0,.06.01.74.13,1.24.45,1.49,1.63.1.46.15.97.15,1.53l.04,16.24c0,4.03-1.8,4.96-3.56,5.34l-2.79.59v-24.57h0Z"/><path class="cls-3" d="M59.43,140.74c-.23,0-.45-.08-.63-.22-.23-.19-.37-.48-.37-.78V42.99c0-.47.33-.88.79-.98l22.96-4.87c2.53-.53,4.87-.8,6.97-.8,8.15,0,13.11,3.94,14.76,11.7.41,1.92.61,4.11.59,6.52v14.27c0,8.8-3.77,15.49-11.19,19.89l16.54,40.14c.11.27.1.58-.04.85s-.39.45-.68.51l-19.07,4.05c-.07.01-.14.02-.21.02-.43,0-.82-.28-.96-.71l-10.96-35.78v38.23c0,.47-.33.88-.8.98l-17.5,3.71c-.07.01-.14.02-.21.02ZM77.93,78.67l.89-.19c2.35-.5,3.14-.81,3.41-.96,1.88-1.08,2.8-2.71,2.79-4.98v-14.28c0-.6-.05-1.12-.15-1.57-.3-1.41-1.02-2.01-2.41-2.01-.4,0-.86.05-1.35.16l-3.15.67-.03,23.16Z"/><path class="cls-4" d="M89.15,37.34c7.64,0,12.24,3.64,13.78,10.91.39,1.86.58,3.96.57,6.3v14.27c0,8.75-3.82,15.24-11.45,19.46l16.87,40.95-19.07,4.05-11.97-39.08-.95.2v41.62s-17.5,3.71-17.5,3.71V42.99s22.96-4.87,22.96-4.87c2.47-.52,4.73-.78,6.76-.78M76.92,79.91l2.1-.45c1.89-.4,3.12-.75,3.67-1.05,2.22-1.28,3.32-3.23,3.31-5.86v-14.27c0-.66-.06-1.25-.17-1.78-.4-1.87-1.53-2.81-3.39-2.81-.47,0-.99.06-1.56.18l-3.94.84-.03,25.21M89.15,35.34h0c-2.17,0-4.58.28-7.17.82l-22.97,4.88c-.92.2-1.58,1.01-1.58,1.96v96.75c0,.6.28,1.17.74,1.55.36.29.8.45,1.26.45.14,0,.28-.01.42-.04l17.5-3.71c.92-.2,1.58-1.01,1.58-1.96v-31.56s9.01,29.4,9.01,29.4c.26.85,1.05,1.41,1.91,1.41.14,0,.28-.01.42-.04l19.07-4.05c.58-.12,1.08-.5,1.35-1.02.28-.53.31-1.15.08-1.7l-16.21-39.35c7.26-4.59,10.95-11.41,10.95-20.29v-14.28c0-2.47-.2-4.73-.62-6.72-1.74-8.17-7.18-12.49-15.74-12.49h0ZM78.95,56.32l2.36-.5c.43-.09.81-.14,1.14-.14.81,0,1.21.18,1.44,1.22.08.38.12.83.11,1.35v14.29c.02,1.92-.69,3.19-2.27,4.11-.13.07-.74.33-2.81.78l.02-21.12h0Z"/><path class="cls-3" d="M112.6,129.45c-.25,0-.5-.09-.68-.27-.24-.22-.35-.55-.31-.87l4.96-35.59,10.7-64.5c.07-.41.38-.73.78-.82l22.7-4.82c.07-.01.14-.02.21-.02.2,0,.39.06.56.17.22.15.38.39.43.65l10.61,59.79,5,33.67c.08.52-.26,1.02-.78,1.13l-17.65,3.75c-.07.01-.14.02-.21.02-.2,0-.4-.06-.57-.18-.23-.16-.38-.4-.42-.68l-2.72-18.43-11.15,2.37-2.86,20.03c-.06.42-.37.75-.78.84l-17.6,3.74c-.07.01-.14.02-.21.02ZM136.51,86.77l6.09-1.29-3.01-20.57-3.08,21.86Z"/><path class="cls-4" d="M150.95,23.56l10.61,59.79,5,33.64-17.65,3.75-2.87-19.49-12.87,2.73-2.96,20.72-17.6,3.74,4.96-35.59,10.69-64.48,22.7-4.82M135.32,88.05l8.41-1.78-4.16-28.38-4.25,30.17M150.95,21.56c-.14,0-.28.01-.42.04l-22.7,4.82c-.81.17-1.42.82-1.56,1.63l-10.69,64.48s0,.03,0,.05l-4.96,35.59c-.09.65.14,1.3.62,1.74.37.35.86.54,1.36.54.14,0,.28-.01.42-.04l17.6-3.74c.82-.17,1.45-.84,1.56-1.67l2.76-19.34,9.42-2,2.56,17.38c.08.55.38,1.04.84,1.35.34.23.74.36,1.14.36.14,0,.28-.01.42-.04l17.65-3.75c1.03-.22,1.72-1.21,1.56-2.25l-5-33.64s0-.04,0-.06l-10.61-59.79c-.09-.53-.4-1.01-.85-1.31-.33-.22-.72-.34-1.12-.34h0ZM137.7,85.5l1.91-13.55,1.87,12.75-3.78.8h0Z"/><path class="cls-3" d="M175.75,116.04c-.23,0-.45-.08-.63-.22-.24-.19-.37-.48-.37-.78V18.3c0-.47.33-.88.79-.98l17.5-3.71c.07-.01.14-.02.21-.02.23,0,.45.08.63.22.23.19.37.48.37.78v96.75c0,.47-.33.88-.79.98l-17.5,3.71c-.07.01-.14.02-.21.02Z"/><path class="cls-4" d="M193.24,14.58v96.75s-17.49,3.71-17.49,3.71V18.3s17.49-3.71,17.49-3.71M193.24,12.58c-.14,0-.28.01-.42.04l-17.5,3.71c-.92.2-1.58,1.01-1.58,1.96v96.75c0,.6.28,1.17.74,1.55.36.29.8.45,1.26.45.14,0,.28-.01.42-.04l17.5-3.71c.92-.2,1.58-1.01,1.58-1.96V14.58c0-.6-.28-1.17-.74-1.55-.36-.29-.8-.45-1.26-.45h0Z"/><path class="cls-3" d="M207.17,109.37c-.23,0-.45-.08-.63-.22-.23-.19-.37-.48-.37-.78V11.63c0-.47.33-.88.79-.98l17.29-3.67c.07-.01.14-.02.21-.02.45,0,.85.3.97.75l9.71,37.56V5.48c-.01-.47.32-.88.78-.98l16.39-3.48c.07-.01.14-.02.21-.02.23,0,.45.08.63.22.23.19.37.48.37.78v96.75c0,.47-.33.88-.79.98l-17.29,3.67c-.07.01-.14.02-.21.02-.45,0-.85-.3-.97-.75l-9.18-36.2v38.32c0,.47-.32.88-.78.98l-16.92,3.59c-.07.01-.14.02-.21.02Z"/><path class="cls-4" d="M252.51,2v96.75s-17.28,3.67-17.28,3.67l-11.15-43.98v46.34s-16.91,3.59-16.91,3.59V11.63s17.28-3.67,17.28-3.67l11.68,45.18V5.48s16.38-3.48,16.38-3.48M252.51,0c-.14,0-.28.01-.42.04l-16.39,3.48c-.92.2-1.58,1.01-1.58,1.96v31.91s-7.73-29.93-7.73-29.93c-.23-.9-1.04-1.5-1.93-1.5-.14,0-.28.01-.42.04l-17.29,3.67c-.92.2-1.58,1.01-1.58,1.96v96.75c0,.6.28,1.17.74,1.55.36.29.8.45,1.26.45.14,0,.28-.01.42-.04l16.92-3.59c.92-.2,1.58-1.01,1.58-1.96v-30.3s7.2,28.43,7.2,28.43c.23.9,1.04,1.51,1.94,1.51.14,0,.28-.01.42-.04l17.29-3.67c.92-.2,1.58-1.01,1.58-1.96V2c0-.6-.27-1.17-.74-1.55-.36-.29-.8-.45-1.26-.45h0Z"/><path class="cls-3" d="M18.88,268.43c-8.79,0-14.18-4.41-16.03-13.11-.47-2.23-.72-4.8-.72-7.63v-15.59c-.01-.47.32-.88.78-.98l17.5-3.71c.07-.01.14-.02.21-.02.23,0,.45.08.63.22.23.19.37.47.37.78v15.59c0,.74.06,1.39.18,1.95.34,1.62,1.11,2.32,2.57,2.32h0c.38,0,.8-.05,1.26-.15,2.97-.63,4.36-2.64,4.36-6.32l.02-12.31c0-.47-.06-.96-.17-1.45-.85-3.99-5.14-8.1-12.77-12.21-7.86-4.17-12.67-10.14-14.28-17.73-.41-1.95-.62-4.03-.63-6.17v-10.1c0-16.28,7.9-26.21,23.45-29.51,2.61-.55,5.03-.83,7.21-.83,8.75,0,14.11,4.4,15.96,13.08.47,2.23.71,4.8.72,7.63l.02,15.59c0,.47-.33.88-.79.98l-17.5,3.71c-.07.01-.14.02-.21.02-.23,0-.45-.08-.63-.22-.23-.19-.37-.47-.37-.78v-15.59c0-.75-.06-1.4-.18-1.95-.34-1.6-1.14-2.31-2.6-2.31-.36,0-.76.04-1.19.13l-.09.02c-2.94.62-4.3,2.63-4.3,6.31v9.78c-.02.42.02.83.11,1.24.79,3.71,5.09,7.69,12.8,11.82,7.94,4.2,12.78,10.12,14.37,17.61.4,1.88.59,3.88.57,5.92l-.02,13.61c0,16.31-7.89,26.26-23.44,29.56-2.58.54-4.99.81-7.15.81Z"/><path class="cls-4" d="M32.81,152.45c8.25,0,13.24,4.1,14.98,12.29.46,2.17.69,4.65.7,7.43l.02,15.59-17.5,3.71-.02-15.59c.01-.81-.05-1.53-.18-2.16-.44-2.07-1.63-3.1-3.58-3.1-.43,0-.89.05-1.39.15l-.11.02c-3.4.72-5.1,3.15-5.1,7.29v9.78c-.02.48.03.96.13,1.45.86,4.03,5.29,8.19,13.3,12.49,7.71,4.07,12.33,9.72,13.86,16.93.39,1.82.57,3.72.55,5.7l-.02,13.62c0,15.85-7.55,25.38-22.65,28.58-2.52.53-4.84.79-6.94.79-8.29,0-13.31-4.11-15.05-12.32-.46-2.17-.69-4.65-.7-7.43l-.02-15.59,17.5-3.71.02,15.59c-.01.81.05,1.53.18,2.16.44,2.07,1.62,3.11,3.55,3.11.45,0,.94-.06,1.47-.17,3.43-.73,5.15-3.16,5.15-7.3l.02-12.3c0-.55-.07-1.1-.19-1.66-.91-4.31-5.34-8.6-13.28-12.89-7.63-4.05-12.23-9.74-13.78-17.06-.4-1.89-.6-3.88-.61-5.97v-10.1c0-15.82,7.56-25.33,22.66-28.53,2.55-.54,4.88-.81,7-.81M32.81,150.45h0c-2.25,0-4.75.29-7.42.86-16.08,3.41-24.23,13.67-24.24,30.49v10.1c0,2.22.23,4.36.65,6.38,1.68,7.89,6.65,14.09,14.8,18.41,7.35,3.96,11.48,7.85,12.26,11.53.09.43.14.86.14,1.27l-.02,12.28c0,4.04-1.8,4.97-3.56,5.35-.39.08-.74.12-1.05.12-.72,0-1.29-.11-1.59-1.53-.1-.48-.15-1.06-.14-1.71l-.02-15.62c0-.6-.27-1.17-.74-1.55-.36-.29-.8-.45-1.26-.45-.14,0-.28.01-.42.04l-17.5,3.71c-.92.2-1.59,1.01-1.58,1.96l.02,15.59c0,2.91.25,5.54.74,7.84,1.93,9.1,7.81,13.91,17.01,13.91,2.23,0,4.7-.28,7.35-.84,16.08-3.41,24.24-13.69,24.24-30.54l.02-13.62c.02-2.1-.18-4.17-.6-6.12-1.65-7.79-6.66-13.94-14.88-18.29-9.25-4.96-11.79-8.8-12.28-11.14-.07-.34-.11-.68-.1-1v-9.81c.01-4.04,1.79-4.96,3.52-5.33l.11-.02c.34-.07.68-.1.97-.1.74,0,1.32.11,1.62,1.52.1.48.15,1.06.14,1.71l.02,15.62c0,.6.27,1.17.74,1.55.36.29.8.45,1.26.45.14,0,.28-.01.42-.04l17.5-3.71c.92-.2,1.59-1.01,1.58-1.96l-.02-15.59c0-2.91-.26-5.55-.74-7.84-1.93-9.08-7.78-13.87-16.93-13.87h0Z"/><path class="cls-3" d="M70.81,256.33c-.23,0-.45-.08-.63-.22-.23-.19-.37-.48-.37-.78l.03-80.09-12.71,2.7c-.07.01-.14.02-.21.02-.23,0-.45-.08-.63-.22-.23-.19-.37-.47-.37-.78l-.03-15.42c0-.47.33-.88.79-.98l45.34-9.62c.07-.01.14-.02.21-.02.23,0,.45.08.63.22.23.19.37.47.37.78l.03,15.42c0,.47-.33.88-.79.98l-13.13,2.79-.03,80.51c0,.47-.33.88-.79.98l-17.5,3.71c-.07.01-.14.02-.21.02Z"/><path class="cls-4" d="M102.23,151.92l.03,15.42-13.92,2.96-.03,81.33-17.5,3.71.03-81.33-13.92,2.96-.03-15.42,45.34-9.63M102.23,149.92c-.14,0-.28.01-.42.04l-45.34,9.63c-.93.2-1.59,1.01-1.58,1.96l.03,15.42c0,.6.27,1.17.74,1.55.36.29.8.44,1.26.44.14,0,.28-.01.42-.04l11.51-2.44-.03,78.86c0,.6.27,1.17.74,1.55.36.29.8.45,1.26.45.14,0,.28-.01.42-.04l17.5-3.71c.92-.2,1.58-1.01,1.58-1.96l.03-79.71,12.34-2.62c.93-.2,1.59-1.01,1.58-1.96l-.03-15.42c0-.6-.27-1.17-.74-1.55-.36-.29-.8-.44-1.26-.44h0Z"/><path class="cls-3" d="M106.96,248.66c-.25,0-.5-.09-.68-.27-.24-.22-.35-.55-.31-.87l4.96-35.59,10.69-64.51c.07-.41.38-.73.78-.82l22.7-4.82c.07-.01.14-.02.21-.02.2,0,.39.06.56.17.22.15.38.39.43.65l10.61,59.79,5,33.67c.08.52-.26,1.02-.78,1.13l-17.65,3.75c-.07.01-.14.02-.21.02-.2,0-.4-.06-.57-.18-.23-.16-.38-.4-.42-.68l-2.72-18.43-11.15,2.37-2.86,20.03c-.06.42-.37.75-.78.84l-17.6,3.74c-.07.01-.14.02-.21.02ZM130.87,205.98l6.09-1.29-3.01-20.57-3.08,21.86Z"/><path class="cls-4" d="M145.31,142.77l10.61,59.79,5,33.64-17.65,3.75-2.87-19.49-12.87,2.73-2.96,20.72-17.6,3.74,4.96-35.59,10.69-64.48,22.7-4.82M129.68,207.26l8.41-1.78-4.16-28.38-4.25,30.17M145.31,140.77c-.14,0-.28.01-.42.04l-22.7,4.82c-.81.17-1.42.82-1.56,1.63l-10.69,64.48s0,.03,0,.05l-4.96,35.59c-.09.65.14,1.3.62,1.74.37.35.86.54,1.36.54.14,0,.28-.01.42-.04l17.6-3.74c.82-.17,1.45-.84,1.56-1.67l2.76-19.34,9.42-2,2.56,17.38c.08.55.38,1.04.84,1.35.34.23.74.36,1.14.36.14,0,.28-.01.42-.04l17.65-3.75c1.03-.22,1.72-1.21,1.56-2.25l-5-33.64s0-.04,0-.06l-10.61-59.79c-.09-.53-.4-1.01-.85-1.31-.33-.22-.72-.34-1.12-.34h0ZM132.06,204.71l1.91-13.55,1.87,12.75-3.78.8h0Z"/><path class="cls-3" d="M183.75,233.38c-8.54,0-13.72-3.98-15.38-11.83-.39-1.85-.59-3.93-.58-6.19v-57.98c0-14.38,7.89-23.35,23.45-26.65,2.9-.62,5.57-.93,7.94-.93,8.54,0,13.71,3.96,15.37,11.77.39,1.85.58,3.93.58,6.19v13.72c0,.47-.33.88-.79.98l-17.5,3.71c-.07.01-.14.02-.21.02-.23,0-.45-.08-.63-.22-.23-.19-.37-.48-.37-.78v-13.73c0-.6-.04-1.1-.13-1.52-.3-1.44-1.05-2.05-2.49-2.05-.39,0-.82.05-1.3.14l-.09.02c-2.94.62-4.32,2.41-4.35,5.61v57.97c0,.57.04,1.07.13,1.52.3,1.41,1.03,2.01,2.43,2.01.41,0,.88-.05,1.38-.16,3.01-.64,4.41-2.41,4.41-5.56v-13.73c0-.47.33-.88.79-.98l17.5-3.71c.07-.01.14-.02.21-.02.23,0,.45.08.63.22.23.19.37.48.37.78v13.73c0,14.38-7.91,23.37-23.49,26.72-2.88.61-5.53.92-7.89.92Z"/><path class="cls-4" d="M199.18,130.81c8.04,0,12.84,3.66,14.39,10.98.38,1.79.56,3.78.56,5.98v13.73s-17.49,3.71-17.49,3.71v-13.73c0-.66-.05-1.23-.15-1.73-.4-1.89-1.56-2.84-3.47-2.84-.46,0-.95.05-1.49.16l-.11.02c-3.4.72-5.11,2.92-5.14,6.58v57.98c0,.63.04,1.2.16,1.73.4,1.87,1.53,2.8,3.41,2.8.48,0,1.01-.06,1.59-.18,3.47-.74,5.2-2.92,5.2-6.54v-13.73s17.49-3.71,17.49-3.71v13.73c0,13.91-7.58,22.49-22.7,25.74-2.82.6-5.38.9-7.68.9-8.04,0-12.84-3.68-14.41-11.04-.38-1.79-.56-3.78-.56-5.98v-57.98c0-13.91,7.56-22.47,22.65-25.68,2.84-.6,5.42-.91,7.73-.91M199.18,128.81c-2.44,0-5.18.32-8.15.95-16.08,3.41-24.23,12.71-24.25,27.63v57.98c0,2.32.2,4.47.61,6.39,1.75,8.26,7.41,12.62,16.36,12.62,2.42,0,5.15-.32,8.09-.94,16.11-3.46,24.28-12.78,24.29-27.69v-13.73c0-.6-.28-1.17-.75-1.55-.36-.29-.8-.45-1.26-.45-.14,0-.28.01-.42.04l-17.5,3.71c-.92.2-1.58,1.01-1.58,1.96v13.73c0,2.67-1.08,4.04-3.61,4.58-.44.09-.84.14-1.18.14-.93,0-1.25-.27-1.45-1.22-.08-.37-.11-.8-.1-1.27v-58.03c.01-2.71,1.07-4.1,3.54-4.62l.11-.02c.38-.08.76-.12,1.08-.12.97,0,1.3.28,1.51,1.26.07.34.11.78.1,1.29v13.74c0,.6.28,1.17.74,1.55.36.29.8.45,1.26.45.14,0,.28-.01.42-.04l17.5-3.71c.92-.2,1.58-1.01,1.58-1.96v-13.73c0-2.32-.2-4.48-.6-6.39-1.74-8.22-7.4-12.56-16.35-12.56h0Z"/><path class="cls-3" d="M226.22,223.34c-.23,0-.45-.08-.63-.22-.23-.19-.37-.48-.37-.78v-96.75c0-.47.33-.88.79-.98l17.5-3.71c.07-.01.14-.02.21-.02.23,0,.45.08.63.22.23.19.37.48.37.78v30.09s11.56-33.28,11.56-33.28c.11-.33.39-.58.74-.65l18.71-3.97c.07-.01.14-.02.21-.02.29,0,.57.12.76.35.24.28.3.66.17,1.01l-19.92,52.24,19.9,43.73c.13.28.12.59-.02.86s-.39.46-.68.53l-18.7,3.97c-.07.01-.14.02-.21.02-.4,0-.77-.24-.93-.62l-11.59-28.42v30.91c.01.47-.32.88-.78.98l-17.5,3.71c-.07.01-.14.02-.21.02Z"/><path class="cls-4" d="M275.92,115.04l-20.07,52.63,20.07,44.11-18.7,3.97-13.52-33.15v36.02s-17.48,3.71-17.48,3.71v-96.75s17.49-3.71,17.49-3.71v36.02s13.5-38.88,13.5-38.88l18.7-3.97M275.92,113.04c-.14,0-.28.01-.42.04l-18.7,3.97c-.69.15-1.24.64-1.47,1.3l-9.6,27.68v-24.16c0-.6-.28-1.17-.75-1.55-.36-.29-.8-.45-1.26-.45-.14,0-.28.01-.42.04l-17.5,3.71c-.92.2-1.58,1.01-1.58,1.96v96.75c0,.6.28,1.17.74,1.55.36.29.8.45,1.26.45.14,0,.28-.01.42-.04l17.5-3.71c.92-.2,1.59-1.01,1.58-1.96v-25.8s9.65,23.69,9.65,23.69c.31.76,1.05,1.25,1.85,1.25.14,0,.28-.01.42-.04l18.7-3.97c.59-.13,1.1-.51,1.37-1.06.27-.54.29-1.18.03-1.73l-19.73-43.35,19.77-51.85c.26-.68.13-1.46-.35-2.01-.38-.45-.94-.7-1.52-.7h0Z"/></g></svg>